<?xml version="1.0" encoding="utf-8"?>
<!-- Generator: Adobe Illustrator 27.5.0, SVG Export Plug-In . SVG Version: 6.00 Build 0)  -->
<svg version="1.1" id="Layer_1" xmlns="http://www.w3.org/2000/svg" xmlns:xlink="http://www.w3.org/1999/xlink" x="0px" y="0px"
	 viewBox="0 0 450 450" style="enable-background:new 0 0 450 450;" xml:space="preserve">
<rect style="fill:#97C2D1;" width="450" height="450"/>
<g>
	<rect x="28.588" y="299.005" style="opacity:0.65;fill:#C1DAE3;" width="75.599" height="99.294"/>
	<g>
		<rect x="23.953" y="293.985" style="fill:#FFFFFF;" width="75.599" height="99.294"/>
		<g>
			<path style="fill:#97DAD8;" d="M52.487,327.083c-1.479-0.674-3.121-1.052-4.852-1.052c-1.282,0-2.515,0.209-3.67,0.59
				l3.67,11.129L52.487,327.083z"/>
			<path style="fill:#97DAD8;" d="M47.635,337.749l10.827,4.486c0.573-1.382,0.891-2.897,0.891-4.486
				c0-4.741-2.817-8.821-6.866-10.666L47.635,337.749L47.635,337.749z"/>
			<polygon style="fill:#FFCC66;" points="47.635,337.749 47.635,337.749 47.635,337.749 			"/>
			<path style="fill:#666699;" d="M47.635,337.749l-3.67-11.129c-3.242,1.069-5.858,3.512-7.157,6.643L47.635,337.749
				L47.635,337.749z"/>
			<path style="fill:#97DAD8;" d="M58.462,342.236l-10.827-4.486l3.67,11.129C54.547,347.809,57.164,345.366,58.462,342.236z"/>
			<path style="fill:#FFCC66;" d="M36.808,333.263c-0.573,1.382-0.891,2.897-0.891,4.486c0,4.741,2.817,8.821,6.866,10.666
				l4.852-10.666L36.808,333.263z"/>
			<path style="fill:#97DAD8;" d="M47.635,337.749l-4.852,10.666c1.479,0.674,3.121,1.052,4.852,1.052
				c1.282,0,2.515-0.209,3.67-0.59L47.635,337.749L47.635,337.749z"/>
		</g>
		<rect x="39.196" y="301.43" style="fill:#A4A4A4;" width="48.888" height="0.973"/>
		<rect x="33.997" y="308.156" style="fill:#A4A4A4;" width="29.126" height="0.973"/>
		<rect x="33.997" y="311.287" style="fill:#A4A4A4;" width="29.126" height="0.973"/>
		<rect x="33.997" y="314.418" style="fill:#A4A4A4;" width="29.126" height="0.973"/>
		<rect x="33.997" y="317.549" style="fill:#A4A4A4;" width="29.126" height="0.973"/>
		<rect x="33.997" y="320.679" style="fill:#A4A4A4;" width="29.126" height="0.973"/>
		<rect x="74.988" y="308.643" style="fill:#A4A4A4;" width="17.261" height="0.973"/>
		<rect x="74.988" y="313.004" style="fill:#A4A4A4;" width="17.261" height="0.973"/>
		<rect x="74.988" y="322.085" style="fill:#A4A4A4;" width="17.261" height="0.973"/>
		<rect x="74.988" y="317.549" style="fill:#A4A4A4;" width="17.261" height="0.973"/>
		<rect x="63.123" y="328.337" style="fill:#A4A4A4;" width="29.126" height="0.973"/>
		<rect x="63.123" y="331.429" style="fill:#A4A4A4;" width="29.126" height="0.973"/>
		<rect x="63.123" y="334.522" style="fill:#A4A4A4;" width="29.126" height="0.973"/>
		<rect x="63.123" y="337.615" style="fill:#A4A4A4;" width="29.126" height="0.973"/>
		<rect x="63.123" y="340.707" style="fill:#A4A4A4;" width="29.126" height="0.973"/>
		<rect x="63.123" y="343.8" style="fill:#A4A4A4;" width="29.126" height="0.973"/>
		<rect x="63.123" y="346.892" style="fill:#A4A4A4;" width="29.126" height="0.973"/>
		<rect x="33.997" y="354.137" style="fill:#A4A4A4;" width="29.287" height="0.973"/>
		<rect x="33.997" y="357.23" style="fill:#A4A4A4;" width="29.287" height="0.973"/>
		<rect x="33.997" y="360.323" style="fill:#A4A4A4;" width="29.287" height="0.973"/>
		<rect x="33.997" y="363.415" style="fill:#A4A4A4;" width="29.287" height="0.973"/>
		<rect x="33.997" y="366.508" style="fill:#A4A4A4;" width="29.287" height="0.973"/>
		<rect x="63.255" y="374.726" style="fill:#A4A4A4;" width="28.994" height="0.973"/>
		<rect x="63.255" y="377.941" style="fill:#A4A4A4;" width="28.994" height="0.973"/>
		<rect x="63.255" y="381.156" style="fill:#A4A4A4;" width="28.994" height="0.973"/>
		<rect x="63.255" y="384.372" style="fill:#A4A4A4;" width="28.994" height="0.973"/>
		<g>
			<rect x="87.701" y="355.371" style="fill:#FFCC66;" width="2.644" height="15.412"/>
			<rect x="83.545" y="358.26" style="fill:#97DAD8;" width="2.644" height="12.523"/>
			<rect x="79.39" y="357.27" style="fill:#FFCC66;" width="2.644" height="13.514"/>
			<rect x="75.234" y="360.301" style="fill:#97DAD8;" width="2.644" height="10.482"/>
			<rect x="71.078" y="362.664" style="fill:#FFCC66;" width="2.644" height="8.12"/>
			<rect x="66.977" y="364.522" style="fill:#97DAD8;" width="2.644" height="6.261"/>
		</g>
		<circle style="fill:#6C92B7;" cx="69.72" cy="308.951" r="1.344"/>
		<path style="fill:#97DAD8;" d="M71.065,313.491c0,0.742-0.602,1.344-1.344,1.344c-0.742,0-1.344-0.602-1.344-1.344
			c0-0.742,0.602-1.344,1.344-1.344C70.463,312.147,71.065,312.749,71.065,313.491z"/>
		<circle style="fill:#FFCC66;" cx="69.72" cy="318.031" r="1.344"/>
		<circle style="fill:#A4A4A4;" cx="69.72" cy="322.572" r="1.344"/>
		<rect x="35.403" y="373.586" style="fill:#FFCC66;" width="5.186" height="4.226"/>
		<rect x="45.042" y="373.586" style="fill:#A4A4A4;" width="5.186" height="4.226"/>
		<rect x="54.682" y="373.586" style="fill:#97DAD8;" width="5.186" height="4.226"/>
		<rect x="35.403" y="381.119" style="fill:#666699;" width="5.186" height="4.226"/>
		<rect x="45.042" y="381.119" style="fill:#FFCC66;" width="5.186" height="4.226"/>
		<rect x="54.682" y="381.119" style="fill:#A4A4A4;" width="5.186" height="4.226"/>
	</g>
</g>
<g>
	<path style="opacity:0.65;fill:#C1DAE3;" d="M123.324,364.838c0,1.114,1.116,2.016,2.493,2.016h8.263
		c1.377,0,2.493-0.903,2.493-2.016v-26.384h-2.061v-7.982h-9.269v7.982h-1.919V364.838z"/>
	<g>
		<rect x="120.222" y="326.481" style="fill:#FFFFFF;" width="9.269" height="13.783"/>
		<path style="fill:#FFCC66;" d="M129.059,362.863h-8.263c-1.377,0-2.493-0.903-2.493-2.016v-26.384h13.249v26.384
			C131.552,361.96,130.436,362.863,129.059,362.863z"/>
		<rect x="121.961" y="329.954" style="fill:#4F4F4F;" width="2.044" height="2.244"/>
		<rect x="125.85" y="329.954" style="fill:#4F4F4F;" width="2.044" height="2.244"/>
	</g>
</g>
<g>
	<path style="opacity:0.65;fill:#C1DAE3;" d="M333.933,399.657H332.1v-21.022v-2.414V372.6v-26.957v-3.621l-2.842-6.275h-0.037
		c0-1.589-0.415-2.878-0.927-2.878c-0.512,0-0.927,1.288-0.927,2.878h-0.097l-2.613,6.275v3.621V372.6v3.621v2.414v26.957h0.838
		v2.012h5.733v-2.012h0.872v-3.621h4.118v-25.75l-2.285,2.414V399.657z"/>
	<g>
		<path style="fill:#A4A4A4;" d="M324.585,330.726c0,1.589-0.415,2.878-0.927,2.878c-0.512,0-0.927-1.288-0.927-2.878
			c0-1.589,0.415-2.877,0.927-2.877C324.17,327.849,324.585,329.137,324.585,330.726z"/>
		<polygon style="fill:#4F4F4F;" points="329.297,373.614 329.297,394.637 327.012,394.637 327.012,396.95 331.582,396.95 
			331.582,371.2 		"/>
		<polygon style="fill:#FFFFFF;" points="324.622,330.726 322.635,330.726 320.021,337.001 327.465,337.001 		"/>
		<rect x="320.859" y="397.453" style="fill:#4F4F4F;" width="5.733" height="5.13"/>
		<polygon style="fill:#97DAD8;" points="320.021,337.001 320.021,340.622 320.021,373.614 327.465,373.614 327.465,340.622 
			327.465,337.001 		"/>
		<rect x="320.021" y="367.579" style="fill:#666699;" width="7.443" height="32.992"/>
		<rect x="320.021" y="367.579" style="fill:#4F4F4F;" width="7.443" height="3.621"/>
	</g>
</g>
<g>
	<path style="opacity:0.65;fill:#C1DAE3;" d="M42.419,278.013v0.003l-2.708-0.003v0.01l-3.52-0.003
		c-2.425,0.002-2.071,1.299-2.068,2.9c-0.003,1.598-0.36,2.892,2.065,2.895l3.523,0.001v0.02l3.247,0.006v-0.006l49.567,0.006
		l0.001-1.454h0l-0.001,1.454l8.89-2.84l-8.885-2.992l-0.002,2.062l0-0.598h0l0.001-1.457L42.419,278.013z"/>
	<g>
		<path style="fill:#A4A4A4;" d="M37.5,275.897c0.001-1.598,0.293-2.897-2.132-2.895l-3.812-0.004
			c-2.426,0.002-2.071,1.299-2.068,2.9l0,0c-0.003,1.598-0.36,2.892,2.065,2.895l3.815,0.001
			C37.792,278.792,37.499,277.496,37.5,275.897L37.5,275.897z"/>
		<g>
			<polygon style="fill:#FFCC66;" points="87.889,278.82 87.89,277.366 87.892,277.366 87.893,274.453 87.893,274.453 
				87.894,272.996 37.784,272.992 37.782,278.814 			"/>
			<g>
				<polygon style="fill:#F4F6F5;" points="87.889,278.82 87.894,272.989 96.779,275.98 				"/>
				<g>
					<path style="fill:#A4A4A4;" d="M92.565,275.991c0-0.46,0.209-0.772,0.99-1.096l3.224,1.086l-3.293,1.052
						C92.921,276.784,92.565,276.462,92.565,275.991z"/>
				</g>
			</g>
			<polygon style="fill:#FFFFFF;" points="38.322,278.82 38.322,277.366 38.322,277.366 38.322,274.453 38.322,274.453 
				38.322,272.996 35.075,272.992 35.075,278.814 			"/>
		</g>
	</g>
</g>
<g>
	<polygon style="opacity:0.65;fill:#C1DAE3;" points="33.036,182.956 33.036,228.671 33.036,231.017 87.363,231.017 87.363,228.671 
		87.363,182.956 87.363,163.381 33.036,163.381 	"/>
	<g>
		<rect x="28.401" y="158.361" style="fill:#FFCC66;" width="54.327" height="65.289"/>
		<rect x="28.401" y="177.936" style="fill:#666699;" width="54.327" height="48.061"/>
		<rect x="33.152" y="162.941" style="fill:#F7F7F7;" width="44.093" height="11.791"/>
		<rect x="33.152" y="181.139" style="fill:#4F4F4F;" width="8.024" height="4.083"/>
		<rect x="33.152" y="189.847" style="fill:#F7F7F7;" width="8.024" height="6.039"/>
		<rect x="45.175" y="189.847" style="fill:#F7F7F7;" width="8.024" height="6.039"/>
		<rect x="57.198" y="189.847" style="fill:#F7F7F7;" width="8.024" height="6.039"/>
		<rect x="33.152" y="197.914" style="fill:#F7F7F7;" width="8.024" height="6.039"/>
		<rect x="45.175" y="197.914" style="fill:#F7F7F7;" width="8.024" height="6.039"/>
		<rect x="57.198" y="197.914" style="fill:#F7F7F7;" width="8.024" height="6.039"/>
		<rect x="33.152" y="205.98" style="fill:#F7F7F7;" width="8.024" height="6.039"/>
		<rect x="45.175" y="205.98" style="fill:#F7F7F7;" width="8.024" height="6.039"/>
		<rect x="57.198" y="205.98" style="fill:#F7F7F7;" width="8.024" height="6.039"/>
		<rect x="33.152" y="214.23" style="fill:#97DAD8;" width="20.047" height="6.039"/>
		<rect x="57.198" y="214.23" style="fill:#F7F7F7;" width="8.024" height="6.039"/>
		<rect x="45.175" y="181.139" style="fill:#4F4F4F;" width="8.024" height="4.083"/>
		<rect x="57.198" y="181.139" style="fill:#4F4F4F;" width="8.024" height="4.083"/>
		<rect x="69.221" y="181.139" style="fill:#4F4F4F;" width="8.024" height="4.083"/>
		<rect x="69.221" y="189.847" style="fill:#F7F7F7;" width="8.024" height="6.039"/>
		<rect x="69.221" y="197.914" style="fill:#F7F7F7;" width="8.024" height="6.039"/>
		<rect x="69.221" y="205.98" style="fill:#FFCC66;" width="8.024" height="14.288"/>
	</g>
</g>
<g>
	<polygon style="opacity:0.65;fill:#C1DAE3;" points="307.078,306.804 149.514,306.804 149.514,416.279 307.078,416.279 
		307.078,382.235 309.757,382.235 309.757,375.927 307.078,375.927 	"/>
	<g>
		<rect x="144.879" y="301.783" style="fill:#666699;" width="157.564" height="109.475"/>
		<path style="fill:#F7F7F7;" d="M149.519,408.479h72.283v-103.35h-72.283V408.479z M219.716,311.574c0.712,0,1.29,0.578,1.29,1.29
			s-0.578,1.29-1.29,1.29c-0.712,0-1.29-0.578-1.29-1.29S219.004,311.574,219.716,311.574z M219.716,316.824
			c0.712,0,1.29,0.577,1.29,1.29c0,0.712-0.578,1.29-1.29,1.29c-0.712,0-1.29-0.578-1.29-1.29
			C218.426,317.401,219.004,316.824,219.716,316.824z M219.716,322.074c0.712,0,1.29,0.578,1.29,1.29s-0.578,1.29-1.29,1.29
			c-0.712,0-1.29-0.578-1.29-1.29S219.004,322.074,219.716,322.074z M219.716,327.324c0.712,0,1.29,0.578,1.29,1.29
			s-0.578,1.29-1.29,1.29c-0.712,0-1.29-0.578-1.29-1.29S219.004,327.324,219.716,327.324z M219.716,332.574
			c0.712,0,1.29,0.578,1.29,1.29c0,0.712-0.578,1.29-1.29,1.29c-0.712,0-1.29-0.577-1.29-1.29
			C218.426,333.152,219.004,332.574,219.716,332.574z M219.716,337.825c0.712,0,1.29,0.578,1.29,1.29s-0.578,1.29-1.29,1.29
			c-0.712,0-1.29-0.578-1.29-1.29S219.004,337.825,219.716,337.825z M219.716,343.075c0.712,0,1.29,0.578,1.29,1.29
			c0,0.712-0.578,1.29-1.29,1.29c-0.712,0-1.29-0.577-1.29-1.29C218.426,343.652,219.004,343.075,219.716,343.075z M219.716,348.325
			c0.712,0,1.29,0.577,1.29,1.29s-0.578,1.29-1.29,1.29c-0.712,0-1.29-0.578-1.29-1.29S219.004,348.325,219.716,348.325z
			 M219.716,353.575c0.712,0,1.29,0.578,1.29,1.29s-0.578,1.29-1.29,1.29c-0.712,0-1.29-0.577-1.29-1.29
			S219.004,353.575,219.716,353.575z M219.716,358.825c0.712,0,1.29,0.578,1.29,1.29s-0.578,1.29-1.29,1.29
			c-0.712,0-1.29-0.578-1.29-1.29S219.004,358.825,219.716,358.825z M219.716,364.075c0.712,0,1.29,0.578,1.29,1.29
			c0,0.712-0.578,1.29-1.29,1.29c-0.712,0-1.29-0.578-1.29-1.29C218.426,364.653,219.004,364.075,219.716,364.075z M219.716,369.326
			c0.712,0,1.29,0.578,1.29,1.29c0,0.712-0.578,1.29-1.29,1.29c-0.712,0-1.29-0.577-1.29-1.29
			C218.426,369.903,219.004,369.326,219.716,369.326z M219.716,374.576c0.712,0,1.29,0.577,1.29,1.29s-0.578,1.29-1.29,1.29
			c-0.712,0-1.29-0.578-1.29-1.29S219.004,374.576,219.716,374.576z M219.716,379.826c0.712,0,1.29,0.578,1.29,1.29
			s-0.578,1.29-1.29,1.29c-0.712,0-1.29-0.577-1.29-1.29S219.004,379.826,219.716,379.826z M219.716,385.076
			c0.712,0,1.29,0.577,1.29,1.29s-0.578,1.29-1.29,1.29c-0.712,0-1.29-0.578-1.29-1.29S219.004,385.076,219.716,385.076z
			 M219.716,390.326c0.712,0,1.29,0.578,1.29,1.29s-0.578,1.29-1.29,1.29c-0.712,0-1.29-0.578-1.29-1.29
			S219.004,390.326,219.716,390.326z M219.716,395.576c0.712,0,1.29,0.578,1.29,1.29c0,0.712-0.578,1.29-1.29,1.29
			c-0.712,0-1.29-0.578-1.29-1.29C218.426,396.154,219.004,395.576,219.716,395.576z M219.716,400.827c0.712,0,1.29,0.578,1.29,1.29
			c0,0.712-0.578,1.29-1.29,1.29c-0.712,0-1.29-0.578-1.29-1.29C218.426,401.404,219.004,400.827,219.716,400.827z"/>
		<rect x="153.914" y="313.214" style="fill:#A4A4A4;" width="61.489" height="2.115"/>
		<rect x="153.914" y="318.619" style="fill:#A4A4A4;" width="61.489" height="2.115"/>
		<rect x="153.914" y="324.024" style="fill:#A4A4A4;" width="61.489" height="2.115"/>
		<rect x="153.914" y="329.429" style="fill:#A4A4A4;" width="61.489" height="2.115"/>
		<rect x="153.914" y="334.834" style="fill:#A4A4A4;" width="61.489" height="2.115"/>
		<rect x="153.914" y="340.239" style="fill:#A4A4A4;" width="61.489" height="2.115"/>
		<rect x="153.914" y="345.644" style="fill:#A4A4A4;" width="61.489" height="2.115"/>
		<rect x="153.914" y="351.049" style="fill:#A4A4A4;" width="61.489" height="2.115"/>
		<rect x="153.914" y="356.454" style="fill:#A4A4A4;" width="61.489" height="2.115"/>
		<rect x="153.914" y="361.859" style="fill:#A4A4A4;" width="61.489" height="2.115"/>
		<rect x="153.914" y="367.264" style="fill:#A4A4A4;" width="61.489" height="2.115"/>
		<rect x="153.914" y="372.669" style="fill:#A4A4A4;" width="61.489" height="2.115"/>
		<rect x="153.914" y="378.074" style="fill:#A4A4A4;" width="61.489" height="2.115"/>
		<rect x="153.914" y="383.479" style="fill:#A4A4A4;" width="61.489" height="2.115"/>
		<rect x="153.914" y="388.884" style="fill:#A4A4A4;" width="61.489" height="2.115"/>
		<rect x="153.914" y="394.289" style="fill:#A4A4A4;" width="61.489" height="2.115"/>
		<g>
			<path style="fill:#F7F7F7;" d="M225.803,305.129v103.35h72.283v-103.35H225.803z M227.772,403.406c-0.712,0-1.29-0.578-1.29-1.29
				c0-0.712,0.578-1.29,1.29-1.29c0.712,0,1.29,0.578,1.29,1.29C229.062,402.829,228.485,403.406,227.772,403.406z M227.772,398.156
				c-0.712,0-1.29-0.578-1.29-1.29c0-0.712,0.578-1.29,1.29-1.29c0.712,0,1.29,0.578,1.29,1.29
				C229.062,397.579,228.485,398.156,227.772,398.156z M227.772,392.906c-0.712,0-1.29-0.578-1.29-1.29s0.578-1.29,1.29-1.29
				c0.712,0,1.29,0.578,1.29,1.29S228.485,392.906,227.772,392.906z M227.772,387.656c-0.712,0-1.29-0.578-1.29-1.29
				s0.578-1.29,1.29-1.29c0.712,0,1.29,0.577,1.29,1.29S228.485,387.656,227.772,387.656z M227.772,382.406
				c-0.712,0-1.29-0.577-1.29-1.29s0.578-1.29,1.29-1.29c0.712,0,1.29,0.578,1.29,1.29S228.485,382.406,227.772,382.406z
				 M227.772,377.156c-0.712,0-1.29-0.578-1.29-1.29s0.578-1.29,1.29-1.29c0.712,0,1.29,0.577,1.29,1.29
				S228.485,377.156,227.772,377.156z M227.772,371.905c-0.712,0-1.29-0.577-1.29-1.29c0-0.712,0.578-1.29,1.29-1.29
				c0.712,0,1.29,0.578,1.29,1.29C229.062,371.328,228.485,371.905,227.772,371.905z M227.772,366.655
				c-0.712,0-1.29-0.578-1.29-1.29c0-0.712,0.578-1.29,1.29-1.29c0.712,0,1.29,0.578,1.29,1.29
				C229.062,366.078,228.485,366.655,227.772,366.655z M227.772,361.405c-0.712,0-1.29-0.578-1.29-1.29s0.578-1.29,1.29-1.29
				c0.712,0,1.29,0.578,1.29,1.29S228.485,361.405,227.772,361.405z M227.772,356.155c-0.712,0-1.29-0.577-1.29-1.29
				s0.578-1.29,1.29-1.29c0.712,0,1.29,0.578,1.29,1.29S228.485,356.155,227.772,356.155z M227.772,350.905
				c-0.712,0-1.29-0.578-1.29-1.29s0.578-1.29,1.29-1.29c0.712,0,1.29,0.577,1.29,1.29S228.485,350.905,227.772,350.905z
				 M227.772,345.655c-0.712,0-1.29-0.577-1.29-1.29c0-0.712,0.578-1.29,1.29-1.29c0.712,0,1.29,0.578,1.29,1.29
				C229.062,345.077,228.485,345.655,227.772,345.655z M227.772,340.405c-0.712,0-1.29-0.578-1.29-1.29s0.578-1.29,1.29-1.29
				c0.712,0,1.29,0.578,1.29,1.29S228.485,340.405,227.772,340.405z M227.772,335.154c-0.712,0-1.29-0.577-1.29-1.29
				c0-0.712,0.578-1.29,1.29-1.29c0.712,0,1.29,0.578,1.29,1.29C229.062,334.577,228.485,335.154,227.772,335.154z M227.772,329.904
				c-0.712,0-1.29-0.578-1.29-1.29s0.578-1.29,1.29-1.29c0.712,0,1.29,0.578,1.29,1.29S228.485,329.904,227.772,329.904z
				 M227.772,324.654c-0.712,0-1.29-0.578-1.29-1.29s0.578-1.29,1.29-1.29c0.712,0,1.29,0.578,1.29,1.29
				S228.485,324.654,227.772,324.654z M227.772,319.404c-0.712,0-1.29-0.578-1.29-1.29c0-0.713,0.578-1.29,1.29-1.29
				c0.712,0,1.29,0.577,1.29,1.29C229.062,318.826,228.485,319.404,227.772,319.404z M227.772,314.154
				c-0.712,0-1.29-0.578-1.29-1.29s0.578-1.29,1.29-1.29c0.712,0,1.29,0.578,1.29,1.29S228.485,314.154,227.772,314.154z"/>
			<rect x="232.322" y="313.214" style="fill:#A4A4A4;" width="61.489" height="2.115"/>
			<rect x="232.322" y="318.619" style="fill:#A4A4A4;" width="61.489" height="2.115"/>
			<rect x="232.322" y="324.024" style="fill:#A4A4A4;" width="61.489" height="2.115"/>
			<rect x="232.322" y="329.429" style="fill:#A4A4A4;" width="61.489" height="2.115"/>
			<rect x="232.322" y="334.834" style="fill:#A4A4A4;" width="61.489" height="2.115"/>
			<rect x="232.322" y="340.239" style="fill:#A4A4A4;" width="61.489" height="2.115"/>
			<rect x="232.322" y="345.644" style="fill:#A4A4A4;" width="61.489" height="2.115"/>
			<rect x="232.322" y="351.049" style="fill:#A4A4A4;" width="61.489" height="2.115"/>
			<rect x="232.322" y="356.454" style="fill:#A4A4A4;" width="61.489" height="2.115"/>
			<rect x="232.322" y="361.859" style="fill:#A4A4A4;" width="61.489" height="2.115"/>
			<rect x="232.322" y="367.264" style="fill:#A4A4A4;" width="61.489" height="2.115"/>
			<rect x="232.322" y="372.669" style="fill:#A4A4A4;" width="61.489" height="2.115"/>
			<rect x="232.322" y="378.074" style="fill:#A4A4A4;" width="61.489" height="2.115"/>
			<rect x="232.322" y="383.479" style="fill:#A4A4A4;" width="61.489" height="2.115"/>
			<rect x="232.322" y="388.884" style="fill:#A4A4A4;" width="61.489" height="2.115"/>
			<rect x="232.322" y="394.289" style="fill:#A4A4A4;" width="61.489" height="2.115"/>
		</g>
		<g style="opacity:0.65;">
			<path style="fill:#D8D8D8;" d="M225.803,305.129c0,34.45,0,68.9,0,103.35l54.864,5.556c0-34.45,0-68.9,0-103.35L225.803,305.129z
				 M227.731,403.151c-0.713,0.113-1.29-0.374-1.29-1.086c0-0.712,0.578-1.381,1.29-1.493c0.712-0.112,1.29,0.374,1.29,1.086
				C229.02,402.37,228.443,403.039,227.731,403.151z M227.731,397.903c-0.713,0.112-1.29-0.375-1.29-1.088s0.578-1.38,1.29-1.491
				c0.712-0.111,1.29,0.376,1.29,1.088C229.02,397.124,228.443,397.792,227.731,397.903z M227.731,392.656
				c-0.713,0.111-1.29-0.377-1.29-1.089c0-0.712,0.578-1.379,1.29-1.489c0.712-0.11,1.29,0.378,1.29,1.09
				C229.02,391.878,228.443,392.545,227.731,392.656z M227.731,387.408c-0.713,0.11-1.29-0.379-1.29-1.091
				c0-0.712,0.578-1.378,1.29-1.488c0.712-0.109,1.29,0.379,1.29,1.091C229.02,386.632,228.443,387.298,227.731,387.408z
				 M227.731,382.16c-0.713,0.109-1.29-0.381-1.29-1.093c0-0.712,0.578-1.378,1.29-1.486c0.712-0.108,1.29,0.381,1.29,1.093
				C229.02,381.386,228.443,382.052,227.731,382.16z M227.731,376.912c-0.713,0.108-1.29-0.382-1.29-1.095
				c0-0.712,0.578-1.377,1.29-1.484c0.712-0.107,1.29,0.383,1.29,1.095C229.02,376.14,228.443,376.805,227.731,376.912z
				 M227.731,371.665c-0.713,0.107-1.29-0.384-1.29-1.097c0-0.712,0.578-1.376,1.29-1.482c0.712-0.106,1.29,0.385,1.29,1.097
				C229.02,370.894,228.443,371.558,227.731,371.665z M227.731,366.417c-0.713,0.106-1.29-0.386-1.29-1.098
				c0-0.712,0.578-1.375,1.29-1.48c0.712-0.105,1.29,0.387,1.29,1.098C229.02,365.648,228.443,366.311,227.731,366.417z
				 M227.731,361.169c-0.713,0.105-1.29-0.388-1.29-1.1c0-0.712,0.578-1.374,1.29-1.479c0.712-0.104,1.29,0.388,1.29,1.1
				C229.02,360.402,228.443,361.065,227.731,361.169z M227.731,355.921c-0.713,0.104-1.29-0.389-1.29-1.102
				c0-0.712,0.578-1.374,1.29-1.477c0.712-0.103,1.29,0.39,1.29,1.102C229.02,355.156,228.443,355.818,227.731,355.921z
				 M227.731,350.674c-0.713,0.103-1.29-0.391-1.29-1.104s0.578-1.373,1.29-1.475c0.712-0.102,1.29,0.392,1.29,1.104
				C229.02,349.91,228.443,350.571,227.731,350.674z M227.731,345.426c-0.713,0.102-1.29-0.393-1.29-1.105s0.578-1.372,1.29-1.473
				c0.712-0.101,1.29,0.394,1.29,1.105C229.02,344.665,228.443,345.324,227.731,345.426z M227.731,340.178
				c-0.713,0.101-1.29-0.395-1.29-1.107c0-0.712,0.578-1.371,1.29-1.472c0.712-0.1,1.29,0.396,1.29,1.107
				C229.02,339.419,228.443,340.078,227.731,340.178z M227.731,334.931c-0.713,0.1-1.29-0.397-1.29-1.109
				c0-0.712,0.578-1.37,1.29-1.47c0.712-0.099,1.29,0.397,1.29,1.109C229.02,334.173,228.443,334.831,227.731,334.931z
				 M227.731,329.683c-0.713,0.099-1.29-0.398-1.29-1.111c0-0.712,0.578-1.37,1.29-1.468c0.712-0.098,1.29,0.399,1.29,1.111
				C229.02,328.927,228.443,329.584,227.731,329.683z M227.731,324.435c-0.713,0.098-1.29-0.4-1.29-1.112
				c0-0.712,0.578-1.369,1.29-1.466c0.712-0.097,1.29,0.401,1.29,1.113C229.02,323.681,228.443,324.337,227.731,324.435z
				 M227.731,319.187c-0.713,0.097-1.29-0.402-1.29-1.114s0.578-1.368,1.29-1.465c0.712-0.096,1.29,0.402,1.29,1.114
				S228.443,319.09,227.731,319.187z M227.731,313.94c-0.713,0.096-1.29-0.404-1.29-1.116c0-0.712,0.578-1.367,1.29-1.463
				c0.712-0.096,1.29,0.404,1.29,1.116C229.02,313.189,228.443,313.844,227.731,313.94z"/>
		</g>
		<g>
			<path style="fill:#F7F7F7;" d="M225.803,305.129c0,34.45,0,68.9,0,103.35c16.788-3.924,33.576-7.849,50.364-11.773
				c0-34.45,0-68.9,0-103.35C259.379,297.28,242.591,301.205,225.803,305.129z M227.731,403.151c-0.713,0.113-1.29-0.374-1.29-1.086
				c0-0.712,0.578-1.381,1.29-1.493c0.712-0.112,1.29,0.374,1.29,1.086C229.02,402.37,228.443,403.039,227.731,403.151z
				 M227.731,397.903c-0.713,0.112-1.29-0.375-1.29-1.088s0.578-1.38,1.29-1.491c0.712-0.111,1.29,0.376,1.29,1.088
				C229.02,397.124,228.443,397.792,227.731,397.903z M227.731,392.656c-0.713,0.111-1.29-0.377-1.29-1.089
				c0-0.712,0.578-1.379,1.29-1.489c0.712-0.11,1.29,0.378,1.29,1.09C229.02,391.878,228.443,392.545,227.731,392.656z
				 M227.731,387.408c-0.713,0.11-1.29-0.379-1.29-1.091c0-0.712,0.578-1.378,1.29-1.488c0.712-0.109,1.29,0.379,1.29,1.091
				C229.02,386.632,228.443,387.298,227.731,387.408z M227.731,382.16c-0.713,0.109-1.29-0.381-1.29-1.093
				c0-0.712,0.578-1.378,1.29-1.486c0.712-0.108,1.29,0.381,1.29,1.093C229.02,381.386,228.443,382.052,227.731,382.16z
				 M227.731,376.912c-0.713,0.108-1.29-0.382-1.29-1.095c0-0.712,0.578-1.377,1.29-1.484c0.712-0.107,1.29,0.383,1.29,1.095
				C229.02,376.14,228.443,376.805,227.731,376.912z M227.731,371.665c-0.713,0.107-1.29-0.384-1.29-1.097
				c0-0.712,0.578-1.376,1.29-1.482c0.712-0.106,1.29,0.385,1.29,1.097C229.02,370.894,228.443,371.558,227.731,371.665z
				 M227.731,366.417c-0.713,0.106-1.29-0.386-1.29-1.098c0-0.712,0.578-1.375,1.29-1.48c0.712-0.105,1.29,0.387,1.29,1.098
				C229.02,365.648,228.443,366.311,227.731,366.417z M227.731,361.169c-0.713,0.105-1.29-0.388-1.29-1.1
				c0-0.712,0.578-1.374,1.29-1.479c0.712-0.104,1.29,0.388,1.29,1.1C229.02,360.402,228.443,361.065,227.731,361.169z
				 M227.731,355.921c-0.713,0.104-1.29-0.389-1.29-1.102c0-0.712,0.578-1.374,1.29-1.477c0.712-0.103,1.29,0.39,1.29,1.102
				C229.02,355.156,228.443,355.818,227.731,355.921z M227.731,350.674c-0.713,0.103-1.29-0.391-1.29-1.104s0.578-1.373,1.29-1.475
				c0.712-0.102,1.29,0.392,1.29,1.104C229.02,349.91,228.443,350.571,227.731,350.674z M227.731,345.426
				c-0.713,0.102-1.29-0.393-1.29-1.105s0.578-1.372,1.29-1.473c0.712-0.101,1.29,0.394,1.29,1.105
				C229.02,344.665,228.443,345.324,227.731,345.426z M227.731,340.178c-0.713,0.101-1.29-0.395-1.29-1.107
				c0-0.712,0.578-1.371,1.29-1.472c0.712-0.1,1.29,0.396,1.29,1.107C229.02,339.419,228.443,340.078,227.731,340.178z
				 M227.731,334.931c-0.713,0.1-1.29-0.397-1.29-1.109c0-0.712,0.578-1.37,1.29-1.47c0.712-0.099,1.29,0.397,1.29,1.109
				C229.02,334.173,228.443,334.831,227.731,334.931z M227.731,329.683c-0.713,0.099-1.29-0.398-1.29-1.111
				c0-0.712,0.578-1.37,1.29-1.468c0.712-0.098,1.29,0.399,1.29,1.111C229.02,328.927,228.443,329.584,227.731,329.683z
				 M227.731,324.435c-0.713,0.098-1.29-0.4-1.29-1.112c0-0.712,0.578-1.369,1.29-1.466c0.712-0.097,1.29,0.401,1.29,1.113
				C229.02,323.681,228.443,324.337,227.731,324.435z M227.731,319.187c-0.713,0.097-1.29-0.402-1.29-1.114s0.578-1.368,1.29-1.465
				c0.712-0.096,1.29,0.402,1.29,1.114S228.443,319.09,227.731,319.187z M227.731,313.94c-0.713,0.096-1.29-0.404-1.29-1.116
				c0-0.712,0.578-1.367,1.29-1.463c0.712-0.096,1.29,0.404,1.29,1.116C229.02,313.189,228.443,313.844,227.731,313.94z"/>
		</g>
		<g>
			<g>
				<path style="fill:#A4A4A4;" d="M272.259,303.674c-13.656,3.795-27.312,7.59-40.968,11.385c0-0.846,0-1.269,0-2.115
					c13.656-3.795,27.312-7.59,40.968-11.385C272.259,302.405,272.259,302.828,272.259,303.674z"/>
				<path style="fill:#A4A4A4;" d="M272.259,309.078c-13.656,3.795-27.312,7.59-40.968,11.385c0-0.846,0-1.269,0-2.115
					c13.656-3.795,27.312-7.59,40.968-11.385C272.259,307.81,272.259,308.233,272.259,309.078z"/>
				<path style="fill:#A4A4A4;" d="M272.259,314.483c-13.656,3.795-27.312,7.59-40.968,11.385c0-0.846,0-1.269,0-2.115
					c13.656-3.795,27.312-7.59,40.968-11.385C272.259,313.215,272.259,313.638,272.259,314.483z"/>
				<path style="fill:#A4A4A4;" d="M272.259,319.888c-13.656,3.795-27.312,7.59-40.968,11.385c0-0.846,0-1.269,0-2.115
					c13.656-3.795,27.312-7.59,40.968-11.385C272.259,318.62,272.259,319.043,272.259,319.888z"/>
				<path style="fill:#A4A4A4;" d="M272.259,325.294c-13.656,3.795-27.312,7.59-40.968,11.385c0-0.846,0-1.269,0-2.115
					c13.656-3.795,27.312-7.59,40.968-11.385C272.259,324.025,272.259,324.448,272.259,325.294z"/>
				<path style="fill:#A4A4A4;" d="M272.259,330.699c-13.656,3.795-27.312,7.59-40.968,11.385c0-0.846,0-1.269,0-2.115
					c13.656-3.795,27.312-7.59,40.968-11.385C272.259,329.43,272.259,329.853,272.259,330.699z"/>
				<path style="fill:#A4A4A4;" d="M272.259,336.104c-13.656,3.795-27.312,7.59-40.968,11.385c0-0.846,0-1.269,0-2.115
					c13.656-3.795,27.312-7.59,40.968-11.385C272.259,334.835,272.259,335.258,272.259,336.104z"/>
				<path style="fill:#A4A4A4;" d="M272.259,341.509c-13.656,3.795-27.312,7.59-40.968,11.385c0-0.846,0-1.269,0-2.115
					c13.656-3.795,27.312-7.59,40.968-11.385C272.259,340.24,272.259,340.663,272.259,341.509z"/>
				<path style="fill:#A4A4A4;" d="M272.259,346.915c-13.656,3.795-27.312,7.59-40.968,11.384c0-0.846,0-1.269,0-2.115
					c13.656-3.795,27.312-7.59,40.968-11.385C272.259,345.646,272.259,346.069,272.259,346.915z"/>
				<path style="fill:#A4A4A4;" d="M272.259,352.32c-13.656,3.795-27.312,7.59-40.968,11.385c0-0.846,0-1.269,0-2.115
					c13.656-3.795,27.312-7.59,40.968-11.385C272.259,351.051,272.259,351.474,272.259,352.32z"/>
				<path style="fill:#A4A4A4;" d="M272.259,357.725c-13.656,3.795-27.312,7.59-40.968,11.385c0-0.846,0-1.269,0-2.115
					c13.656-3.795,27.312-7.59,40.968-11.385C272.259,356.456,272.259,356.879,272.259,357.725z"/>
				<path style="fill:#A4A4A4;" d="M272.259,363.131c-13.656,3.795-27.312,7.59-40.968,11.384c0-0.846,0-1.269,0-2.115
					c13.656-3.795,27.312-7.59,40.968-11.385C272.259,361.862,272.259,362.284,272.259,363.131z"/>
				<path style="fill:#A4A4A4;" d="M272.259,368.536c-13.656,3.795-27.312,7.59-40.968,11.385c0-0.846,0-1.269,0-2.115
					c13.656-3.795,27.312-7.59,40.968-11.385C272.259,367.267,272.259,367.69,272.259,368.536z"/>
				<path style="fill:#A4A4A4;" d="M272.259,373.941c-13.656,3.795-27.312,7.59-40.968,11.385c0-0.846,0-1.269,0-2.115
					c13.656-3.795,27.312-7.59,40.968-11.385C272.259,372.672,272.259,373.095,272.259,373.941z"/>
				<path style="fill:#A4A4A4;" d="M272.259,379.346c-13.656,3.795-27.312,7.59-40.968,11.385c0-0.846,0-1.269,0-2.115
					c13.656-3.795,27.312-7.59,40.968-11.385C272.259,378.077,272.259,378.5,272.259,379.346z"/>
				<path style="fill:#A4A4A4;" d="M272.259,384.751c-13.656,3.795-27.312,7.59-40.968,11.385c0-0.846,0-1.269,0-2.115
					c13.656-3.795,27.312-7.59,40.968-11.385C272.259,383.482,272.259,383.905,272.259,384.751z"/>
			</g>
		</g>
		<rect x="286.621" y="370.906" style="fill:#FA8732;" width="18.5" height="6.308"/>
		<polygon style="fill:#FFCC66;" points="178.205,340.197 174.08,337.635 169.955,340.197 169.955,303.868 178.205,303.868 		"/>
		<path style="fill:#606668;" d="M227.886,312.843c0,0.408-0.412,0.739-0.924,0.739h-6.603c-0.514,0-0.924-0.331-0.924-0.739l0,0
			c0-0.408,0.41-0.738,0.924-0.738h6.603C227.475,312.105,227.886,312.435,227.886,312.843L227.886,312.843z"/>
		<path style="fill:#606668;" d="M227.886,318.012c0,0.408-0.412,0.74-0.924,0.74h-6.603c-0.514,0-0.924-0.332-0.924-0.74l0,0
			c0-0.407,0.41-0.737,0.924-0.737h6.603C227.475,317.275,227.886,317.605,227.886,318.012L227.886,318.012z"/>
		<path style="fill:#606668;" d="M227.886,323.49c0,0.407-0.412,0.738-0.924,0.738h-6.603c-0.514,0-0.924-0.331-0.924-0.738l0,0
			c0-0.409,0.41-0.738,0.924-0.738h6.603C227.475,322.752,227.886,323.081,227.886,323.49L227.886,323.49z"/>
		<path style="fill:#606668;" d="M227.886,328.72c0,0.408-0.412,0.739-0.924,0.739h-6.603c-0.514,0-0.924-0.331-0.924-0.739l0,0
			c0-0.407,0.41-0.737,0.924-0.737h6.603C227.475,327.983,227.886,328.313,227.886,328.72L227.886,328.72z"/>
		<path style="fill:#606668;" d="M227.886,333.889c0,0.408-0.412,0.738-0.924,0.738h-6.603c-0.514,0-0.924-0.33-0.924-0.738l0,0
			c0-0.408,0.41-0.739,0.924-0.739h6.603C227.475,333.15,227.886,333.481,227.886,333.889L227.886,333.889z"/>
		<path style="fill:#606668;" d="M227.886,339.06c0,0.407-0.412,0.738-0.924,0.738h-6.603c-0.514,0-0.924-0.331-0.924-0.738l0,0
			c0-0.407,0.41-0.739,0.924-0.739h6.603C227.475,338.321,227.886,338.653,227.886,339.06L227.886,339.06z"/>
		<path style="fill:#606668;" d="M227.886,344.292c0,0.408-0.412,0.739-0.924,0.739h-6.603c-0.514,0-0.924-0.331-0.924-0.739l0,0
			c0-0.408,0.41-0.739,0.924-0.739h6.603C227.475,343.553,227.886,343.884,227.886,344.292L227.886,344.292z"/>
		<path style="fill:#606668;" d="M227.886,349.77c0,0.407-0.412,0.738-0.924,0.738h-6.603c-0.514,0-0.924-0.331-0.924-0.738l0,0
			c0-0.408,0.41-0.739,0.924-0.739h6.603C227.475,349.031,227.886,349.362,227.886,349.77L227.886,349.77z"/>
		<path style="fill:#606668;" d="M227.886,354.938c0,0.408-0.412,0.74-0.924,0.74h-6.603c-0.514,0-0.924-0.332-0.924-0.74l0,0
			c0-0.407,0.41-0.738,0.924-0.738h6.603C227.475,354.2,227.886,354.531,227.886,354.938L227.886,354.938z"/>
		<path style="fill:#606668;" d="M227.886,360.118c0,0.408-0.412,0.739-0.924,0.739h-6.603c-0.514,0-0.924-0.331-0.924-0.739l0,0
			c0-0.408,0.41-0.738,0.924-0.738h6.603C227.475,359.38,227.886,359.71,227.886,360.118L227.886,360.118z"/>
		<path style="fill:#606668;" d="M227.886,365.287c0,0.408-0.412,0.74-0.924,0.74h-6.603c-0.514,0-0.924-0.332-0.924-0.74l0,0
			c0-0.407,0.41-0.737,0.924-0.737h6.603C227.475,364.55,227.886,364.88,227.886,365.287L227.886,365.287z"/>
		<path style="fill:#606668;" d="M227.886,370.765c0,0.407-0.412,0.738-0.924,0.738h-6.603c-0.514,0-0.924-0.331-0.924-0.738l0,0
			c0-0.409,0.41-0.738,0.924-0.738h6.603C227.475,370.027,227.886,370.356,227.886,370.765L227.886,370.765z"/>
		<path style="fill:#606668;" d="M227.886,375.996c0,0.408-0.412,0.739-0.924,0.739h-6.603c-0.514,0-0.924-0.331-0.924-0.739l0,0
			c0-0.407,0.41-0.737,0.924-0.737h6.603C227.475,375.259,227.886,375.589,227.886,375.996L227.886,375.996z"/>
		<path style="fill:#606668;" d="M227.886,381.164c0,0.408-0.412,0.738-0.924,0.738h-6.603c-0.514,0-0.924-0.33-0.924-0.738l0,0
			c0-0.408,0.41-0.739,0.924-0.739h6.603C227.475,380.425,227.886,380.756,227.886,381.164L227.886,381.164z"/>
		<path style="fill:#606668;" d="M227.886,386.336c0,0.407-0.412,0.738-0.924,0.738h-6.603c-0.514,0-0.924-0.331-0.924-0.738l0,0
			c0-0.407,0.41-0.739,0.924-0.739h6.603C227.475,385.596,227.886,385.929,227.886,386.336L227.886,386.336z"/>
		<path style="fill:#606668;" d="M227.886,391.567c0,0.408-0.412,0.739-0.924,0.739h-6.603c-0.514,0-0.924-0.331-0.924-0.739l0,0
			c0-0.408,0.41-0.739,0.924-0.739h6.603C227.475,390.828,227.886,391.159,227.886,391.567L227.886,391.567z"/>
		<path style="fill:#606668;" d="M227.886,397.045c0,0.407-0.412,0.738-0.924,0.738h-6.603c-0.514,0-0.924-0.331-0.924-0.738l0,0
			c0-0.408,0.41-0.739,0.924-0.739h6.603C227.475,396.306,227.886,396.637,227.886,397.045L227.886,397.045z"/>
		<path style="fill:#606668;" d="M227.886,402.213c0,0.408-0.412,0.74-0.924,0.74h-6.603c-0.514,0-0.924-0.332-0.924-0.74l0,0
			c0-0.407,0.41-0.738,0.924-0.738h6.603C227.475,401.475,227.886,401.806,227.886,402.213L227.886,402.213z"/>
	</g>
</g>
<g>
	<polygon style="opacity:0.65;fill:#C1DAE3;" points="394.522,238.822 394.522,211.222 357.097,211.222 357.097,245.278 
		388.066,245.278 	"/>
	<g>
		<path style="fill:#666699;" d="M351.853,205.542v34.056h30.969v-6.456h6.456v-27.6H351.853z"/>
		<rect x="357.845" y="211.251" style="fill:#FFFFFF;" width="26.962" height="2.776"/>
		<rect x="357.845" y="217.347" style="fill:#FFFFFF;" width="26.962" height="2.776"/>
		<rect x="357.845" y="223.443" style="fill:#FFFFFF;" width="26.962" height="2.776"/>
		<rect x="357.845" y="229.539" style="fill:#FFFFFF;" width="18.513" height="2.776"/>
		<polygon style="fill:#FFFFFF;" points="382.822,239.598 389.278,233.142 382.822,233.142 		"/>
	</g>
</g>
<g>
	<polygon style="opacity:0.65;fill:#C1DAE3;" points="400.751,175.985 400.751,210.04 431.72,210.04 438.176,203.585 
		438.176,175.985 	"/>
	<g>
		<path style="fill:#FFCC66;" d="M395.507,170.305v34.056h30.969v-6.456h6.456v-27.6H395.507z"/>
		<rect x="401.499" y="176.013" style="fill:#FFFFFF;" width="26.962" height="2.776"/>
		<rect x="401.499" y="182.11" style="fill:#FFFFFF;" width="26.962" height="2.776"/>
		<rect x="401.499" y="188.206" style="fill:#FFFFFF;" width="26.962" height="2.776"/>
		<rect x="401.499" y="194.302" style="fill:#FFFFFF;" width="18.513" height="2.776"/>
		<polygon style="fill:#FFFFFF;" points="426.476,204.361 432.932,197.905 426.476,197.905 		"/>
	</g>
</g>
<g>
	<path style="opacity:0.65;fill:#C1DAE3;" d="M395.431,273.253c0,0-3.235-0.674-14.159-3.238
		c-10.924-2.562-18.207-0.674-19.151,0.809c0,0,0,4.987,0,4.99c0-0.364,1.665,1.142,1.709,1.223c1.325,2.555,1.692,4.94,2.599,7.505
		c1.489,4.215,5.169,6.357,9.556,7.011c1.509,0.224,3.09,0.258,4.612,0.147c3.238-0.24,6.249-1.452,7.821-3.41
		c1.129-1.401,2.697-3.772,5.126-9.55c0.191-0.036,0.382-0.072,0.571-0.108c1.131,0.235,2.299,0.475,3.465,0.712
		c2.282,5.336,3.78,7.595,4.865,8.946c1.574,1.958,4.586,3.17,7.822,3.411c1.523,0.112,3.104,0.077,4.615-0.146
		c4.386-0.654,8.065-2.795,9.555-7.01c0.907-2.566,1.274-4.95,2.601-7.505c0.042-0.081,1.708-1.586,1.708-1.223
		c0-0.003,0-4.99,0-4.99c-0.944-1.483-8.226-3.371-19.15-0.81C398.669,272.579,395.431,273.253,395.431,273.253z M383.619,272.668
		c1.294,0.307,2.299,0.746,3.071,1.304c-0.746-0.088-1.416-0.15-1.974-0.175c-4.535-0.199-11.3-0.92-15.329-1.382
		c0.349-0.262,0.703-0.437,1.009-0.551C373.586,270.688,379.388,271.666,383.619,272.668z M388.69,281.749
		c-0.341,2.316-1.772,5.304-4.855,6.945c-3.022,1.61-9.816,0.433-11.735-0.742c-4.634-2.836-5.095-8.188-4.582-11.578
		c2.723,0.217,8.49,0.532,17.487,0.326c0,0,0.277,0.06,0.761,0.165c-6.609,1.345-12.222,2.622-12.222,2.622
		s-2.001,3.395,7.346,1.635c2.069-0.389,4.962-0.934,8.007-1.507C388.871,280.29,388.8,281,388.69,281.749z M418.763,287.953
		c-1.917,1.175-8.71,2.351-11.733,0.741c-3.085-1.64-4.514-4.629-4.855-6.945c-0.077-0.527-0.135-1.035-0.173-1.526
		c1.747,0.339,3.345,0.635,4.614,0.847c9.721,1.625,7.39-1.469,7.39-1.469s-5.129-1.256-11.228-2.601
		c0.943-0.178,1.497-0.282,1.497-0.282c9.919,0.211,16.197-0.12,19.073-0.338C423.86,279.771,423.398,285.119,418.763,287.953z
		 M420.468,271.867c0.411,0.151,0.904,0.413,1.359,0.849c-4.009,0.301-11.924,0.869-17.248,1.085
		c-0.047,0.002-0.101,0.006-0.149,0.009c0.736-0.479,1.656-0.865,2.817-1.14C411.479,271.668,417.28,270.69,420.468,271.867z"/>
	<g>
		<path style="opacity:0.75;fill:#58616C;" d="M421.993,274.523c0,0-6.77,0.805-20.919,0.503c0,0-16.387,3.086-23.384,4.403
			c-9.347,1.759-7.346-1.635-7.346-1.635s23.651-5.384,31.034-5.685c7.388-0.3,19.771-1.278,19.771-1.278L421.993,274.523z"/>
		<path style="opacity:0.75;fill:#58616C;" d="M362.473,274.505c0,0,6.253,0.801,19.332,0.502c0,0,15.106,3.284,21.61,4.371
			c9.721,1.625,7.39-1.469,7.39-1.469s-22.462-5.504-29.29-5.804c-6.823-0.299-18.7-1.781-18.7-1.781L362.473,274.505z"/>
		<g>
			<path style="fill:#39393D;" d="M375.059,268.745c-8.987-0.932-12.586,1.673-12.586,7.148c0,3.043,1.743,6.621,4.486,9.199
				l11.95-15.743C377.763,269.095,376.486,268.892,375.059,268.745z"/>
			<path style="opacity:0.8;fill:#FFFFFF;" d="M378.909,269.349l-11.95,15.743c0.435,0.411,0.898,0.794,1.383,1.148l12.444-16.39
				C380.205,269.666,379.58,269.498,378.909,269.349z"/>
			<g>
				<path style="fill:#39393D;" d="M384.856,271.943l-12.418,16.283c0.846,0.221,1.722,0.343,2.62,0.343
					c6.954,0,12.589-4.438,12.589-9.912C387.647,275.876,386.872,273.623,384.856,271.943z"/>
				<path style="fill:#39393D;" d="M380.787,269.85l-12.444,16.39c1.015,0.74,2.126,1.339,3.307,1.746l12.59-16.508
					C383.317,270.837,382.175,270.292,380.787,269.85z"/>
				<path style="opacity:0.8;fill:#FFFFFF;" d="M384.24,271.478l-12.59,16.508c0.259,0.09,0.522,0.171,0.789,0.241l12.418-16.283
					C384.661,271.784,384.457,271.629,384.24,271.478z"/>
			</g>
		</g>
		<g>
			<path style="fill:#39393D;" d="M409.541,268.018c-3.146,0.306-12.14,3.843-12.14,9.777c0,3.301-0.139,4.496,2.827,7.291
				l12.909-17.068C411.899,267.745,411.081,267.869,409.541,268.018z"/>
			<path style="opacity:0.8;fill:#FFFFFF;" d="M413.137,268.018l-12.909,17.068c0.469,0.444,0.969,0.862,1.495,1.244l13.444-17.768
				C414.537,268.361,413.863,268.18,413.137,268.018z"/>
			<g>
				<path style="fill:#39393D;" d="M419.561,270.831l-13.416,17.652c0.914,0.241,1.861,0.372,2.834,0.372
					c7.508,0,13.013-5.125,13.014-11.059C421.993,274.782,421.739,272.65,419.561,270.831z"/>
				<path style="fill:#39393D;" d="M415.166,268.563l-13.444,17.768c1.096,0.803,2.296,1.451,3.573,1.892l13.603-17.897
					C417.898,269.631,416.667,269.042,415.166,268.563z"/>
				<path style="opacity:0.8;fill:#FFFFFF;" d="M418.898,270.326l-13.603,17.897c0.279,0.097,0.563,0.184,0.85,0.26l13.416-17.652
					C419.353,270.658,419.132,270.488,418.898,270.326z"/>
			</g>
		</g>
		<path style="fill:#282828;" d="M406.395,268.324c-10.927,2.563-14.164,3.237-14.164,3.237s-3.235-0.674-14.159-3.238
			c-10.924-2.562-18.207-0.674-19.151,0.809c0,0,0,4.987,0,4.99c0-0.364,1.665,1.142,1.709,1.223
			c1.325,2.555,1.692,4.94,2.599,7.505c1.489,4.215,5.169,6.357,9.556,7.011c1.509,0.224,3.09,0.258,4.612,0.147
			c3.238-0.24,6.249-1.452,7.821-3.41c1.211-1.502,2.925-4.116,5.666-10.855l2.697,0c2.741,6.74,4.456,9.354,5.663,10.856
			c1.574,1.958,4.586,3.17,7.822,3.41c1.523,0.112,3.104,0.077,4.615-0.146c4.386-0.654,8.065-2.796,9.555-7.01
			c0.906-2.566,1.274-4.95,2.601-7.505c0.042-0.081,1.708-1.586,1.708-1.223c0-0.003,0-4.99,0-4.99
			C424.601,267.651,417.319,265.763,406.395,268.324z M385.49,280.057c-0.341,2.316-1.772,5.304-4.855,6.945
			c-3.022,1.61-9.816,0.433-11.735-0.742c-5.798-3.548-5.068-11.042-4.065-13.695c0.558-1.477,1.603-2.111,2.362-2.391
			c3.189-1.177,8.991-0.199,13.222,0.803C385.543,272.191,386.163,275.472,385.49,280.057z M415.563,286.261
			c-1.917,1.175-8.71,2.351-11.733,0.741c-3.085-1.64-4.514-4.629-4.855-6.945c-0.673-4.585-0.053-7.866,5.072-9.08
			c4.233-1.002,10.033-1.979,13.221-0.802c0.76,0.28,1.803,0.914,2.361,2.391C420.633,275.219,421.364,282.714,415.563,286.261z"/>
	</g>
</g>
<g>
	<path style="opacity:0.65;fill:#C1DAE3;" d="M336.268,130.889c2.478,0,5.138-2.686,5.952-6.043l20.18-83.164
		c0.397-1.638,0.473-3.17,0.287-4.482c-0.006-0.237-0.056-0.485-0.135-0.725c-0.421-1.792-1.4-3.042-2.794-3.356l-2.872-2.767
		c-0.579-0.48-1.262-0.755-1.873-0.755h-10.276h-2.699h-3.39h-6.423h-2.074h-1.349H122.786h-2.699h-3.39h-6.423h-6.017
		c-0.611,0-1.294,0.275-1.873,0.755l-2.867,2.766c-2.529,0.565-3.705,4.206-2.647,8.564l20.18,83.164
		c0.814,3.357,3.475,6.043,5.952,6.043h35.619c0.016,0.26,0.037,0.518,0.065,0.774h-34.719c-3.138,0-5.682,4.747-5.682,10.602
		v121.413c0,5.855,2.544,10.602,5.682,10.602h211.331c3.138,0,5.682-4.746,5.682-10.602V142.264c0-5.855-2.544-10.602-5.682-10.602
		h-34.717c0.028-0.256,0.049-0.514,0.065-0.774H336.268z"/>
	<g>
		<g>
			<path style="fill:#EFEFEF;" d="M330.664,269.258H119.333c-3.138,0-5.682-4.746-5.682-10.602V137.244
				c0-5.855,2.544-10.602,5.682-10.602h211.331c3.138,0,5.682,4.746,5.682,10.602v121.413
				C336.346,264.512,333.802,269.258,330.664,269.258z"/>
			<path style="fill:#999999;" d="M324.299,217.71l-198.61-0.035c-2.949,0-5.34-2.179-5.339-4.866l0.01-55.713
				c0.001-2.687,2.392-4.864,5.341-4.864l198.61,0.035c2.949,0,5.34,2.179,5.339,4.866l-0.01,55.713
				C329.64,215.533,327.249,217.711,324.299,217.71z"/>
			<g>
				<path style="fill:#E7E7E7;" d="M131.3,163.851c0,0.301-0.246,0.547-0.547,0.547h-6.63c-0.301,0-0.547-0.246-0.547-0.547v-6.63
					c0-0.301,0.246-0.547,0.547-0.547h6.63c0.301,0,0.547,0.246,0.547,0.547V163.851z"/>
				<path style="fill:#E7E7E7;" d="M131.3,175.512c0,0.301-0.246,0.547-0.547,0.547h-6.63c-0.301,0-0.547-0.246-0.547-0.547v-6.63
					c0-0.301,0.246-0.547,0.547-0.547h6.63c0.301,0,0.547,0.246,0.547,0.547V175.512z"/>
				<path style="fill:#E7E7E7;" d="M140.319,175.512c0,0.301-0.246,0.547-0.547,0.547h-6.63c-0.301,0-0.547-0.246-0.547-0.547v-6.63
					c0-0.301,0.246-0.547,0.547-0.547h6.63c0.301,0,0.547,0.246,0.547,0.547V175.512z"/>
				<path style="fill:#E7E7E7;" d="M149.338,175.512c0,0.301-0.246,0.547-0.547,0.547h-6.63c-0.301,0-0.547-0.246-0.547-0.547v-6.63
					c0-0.301,0.246-0.547,0.547-0.547h6.63c0.301,0,0.547,0.246,0.547,0.547V175.512z"/>
				<path style="fill:#E7E7E7;" d="M158.357,175.512c0,0.301-0.246,0.547-0.547,0.547h-6.63c-0.301,0-0.547-0.246-0.547-0.547v-6.63
					c0-0.301,0.246-0.547,0.547-0.547h6.63c0.301,0,0.547,0.246,0.547,0.547V175.512z"/>
				<path style="fill:#E7E7E7;" d="M167.376,175.512c0,0.301-0.246,0.547-0.547,0.547h-6.63c-0.301,0-0.547-0.246-0.547-0.547v-6.63
					c0-0.301,0.246-0.547,0.547-0.547h6.63c0.301,0,0.547,0.246,0.547,0.547V175.512z"/>
				<path style="fill:#E7E7E7;" d="M176.395,175.512c0,0.301-0.246,0.547-0.547,0.547h-6.63c-0.301,0-0.547-0.246-0.547-0.547v-6.63
					c0-0.301,0.246-0.547,0.547-0.547h6.63c0.301,0,0.547,0.246,0.547,0.547V175.512z"/>
				<path style="fill:#E7E7E7;" d="M185.414,175.512c0,0.301-0.246,0.547-0.547,0.547h-6.63c-0.301,0-0.547-0.246-0.547-0.547v-6.63
					c0-0.301,0.246-0.547,0.547-0.547h6.63c0.301,0,0.547,0.246,0.547,0.547V175.512z"/>
				<path style="fill:#E7E7E7;" d="M194.433,175.512c0,0.301-0.246,0.547-0.547,0.547h-6.63c-0.301,0-0.547-0.246-0.547-0.547v-6.63
					c0-0.301,0.246-0.547,0.547-0.547h6.63c0.301,0,0.547,0.246,0.547,0.547V175.512z"/>
				<path style="fill:#E7E7E7;" d="M203.452,175.512c0,0.301-0.246,0.547-0.547,0.547h-6.63c-0.301,0-0.547-0.246-0.547-0.547v-6.63
					c0-0.301,0.246-0.547,0.547-0.547h6.63c0.301,0,0.547,0.246,0.547,0.547V175.512z"/>
				<path style="fill:#E7E7E7;" d="M212.471,175.512c0,0.301-0.246,0.547-0.547,0.547h-6.63c-0.301,0-0.547-0.246-0.547-0.547v-6.63
					c0-0.301,0.246-0.547,0.547-0.547h6.63c0.301,0,0.547,0.246,0.547,0.547V175.512z"/>
				<path style="fill:#E7E7E7;" d="M221.49,175.512c0,0.301-0.246,0.547-0.547,0.547h-6.63c-0.301,0-0.547-0.246-0.547-0.547v-6.63
					c0-0.301,0.246-0.547,0.547-0.547h6.63c0.301,0,0.547,0.246,0.547,0.547V175.512z"/>
				<path style="fill:#E7E7E7;" d="M230.509,175.512c0,0.301-0.246,0.547-0.547,0.547h-6.63c-0.301,0-0.547-0.246-0.547-0.547v-6.63
					c0-0.301,0.246-0.547,0.547-0.547h6.63c0.301,0,0.547,0.246,0.547,0.547V175.512z"/>
				<path style="fill:#E7E7E7;" d="M239.528,175.512c0,0.301-0.246,0.547-0.547,0.547h-6.63c-0.301,0-0.547-0.246-0.547-0.547v-6.63
					c0-0.301,0.246-0.547,0.547-0.547h6.63c0.301,0,0.547,0.246,0.547,0.547V175.512z"/>
				<path style="fill:#E7E7E7;" d="M256.455,175.512c0,0.301-0.246,0.547-0.547,0.547h-14.538c-0.301,0-0.547-0.246-0.547-0.547
					v-6.63c0-0.301,0.246-0.547,0.547-0.547h14.538c0.301,0,0.547,0.246,0.547,0.547V175.512z"/>
				<path style="fill:#E7E7E7;" d="M134.899,184.85c0,0.301-0.246,0.547-0.547,0.547h-10.23c-0.301,0-0.547-0.246-0.547-0.547v-6.63
					c0-0.301,0.246-0.547,0.547-0.547h10.23c0.301,0,0.547,0.246,0.547,0.547V184.85z"/>
				<path style="fill:#E7E7E7;" d="M137.223,194.143c0,0.301-0.246,0.547-0.547,0.547h-12.553c-0.301,0-0.547-0.246-0.547-0.547
					v-6.63c0-0.301,0.246-0.547,0.547-0.547h12.553c0.301,0,0.547,0.246,0.547,0.547V194.143z"/>
				<path style="fill:#E7E7E7;" d="M141.828,203.435c0,0.301-0.246,0.547-0.547,0.547h-17.159c-0.301,0-0.547-0.246-0.547-0.547
					v-6.63c0-0.301,0.246-0.547,0.547-0.547h17.159c0.301,0,0.547,0.246,0.547,0.547V203.435z"/>
				<path style="fill:#E7E7E7;" d="M135.241,212.59c0,0.301-0.246,0.547-0.547,0.547h-10.571c-0.301,0-0.547-0.246-0.547-0.547
					v-6.63c0-0.301,0.246-0.547,0.547-0.547h10.571c0.301,0,0.547,0.246,0.547,0.547V212.59z"/>
				<path style="fill:#E7E7E7;" d="M144.18,184.85c0,0.301-0.246,0.547-0.547,0.547h-6.63c-0.301,0-0.547-0.246-0.547-0.547v-6.63
					c0-0.301,0.246-0.547,0.547-0.547h6.63c0.301,0,0.547,0.246,0.547,0.547V184.85z"/>
				<path style="fill:#E7E7E7;" d="M146.402,194.143c0,0.301-0.246,0.547-0.547,0.547h-6.63c-0.301,0-0.547-0.246-0.547-0.547v-6.63
					c0-0.301,0.246-0.547,0.547-0.547h6.63c0.301,0,0.547,0.246,0.547,0.547V194.143z"/>
				<path style="fill:#E7E7E7;" d="M155.723,194.143c0,0.301-0.246,0.547-0.547,0.547h-6.63c-0.301,0-0.547-0.246-0.547-0.547v-6.63
					c0-0.301,0.246-0.547,0.547-0.547h6.63c0.301,0,0.547,0.246,0.547,0.547V194.143z"/>
				<path style="fill:#E7E7E7;" d="M151.168,203.435c0,0.301-0.246,0.547-0.547,0.547h-6.63c-0.301,0-0.547-0.246-0.547-0.547v-6.63
					c0-0.301,0.246-0.547,0.547-0.547h6.63c0.301,0,0.547,0.246,0.547,0.547V203.435z"/>
				<path style="fill:#E7E7E7;" d="M144.433,212.59c0,0.301-0.246,0.547-0.547,0.547h-6.63c-0.301,0-0.547-0.246-0.547-0.547v-6.63
					c0-0.301,0.246-0.547,0.547-0.547h6.63c0.301,0,0.547,0.246,0.547,0.547V212.59z"/>
				<path style="fill:#E7E7E7;" d="M153.754,212.59c0,0.301-0.246,0.547-0.547,0.547h-6.63c-0.301,0-0.547-0.246-0.547-0.547v-6.63
					c0-0.301,0.246-0.547,0.547-0.547h6.63c0.301,0,0.547,0.246,0.547,0.547V212.59z"/>
				<path style="fill:#E7E7E7;" d="M162.989,212.59c0,0.301-0.246,0.547-0.547,0.547h-6.63c-0.301,0-0.547-0.246-0.547-0.547v-6.63
					c0-0.301,0.246-0.547,0.547-0.547h6.63c0.301,0,0.547,0.246,0.547,0.547V212.59z"/>
				<path style="fill:#E7E7E7;" d="M218.513,212.59c0,0.301-0.246,0.547-0.547,0.547h-52.993c-0.301,0-0.547-0.246-0.547-0.547
					v-6.63c0-0.301,0.246-0.547,0.547-0.547h52.993c0.301,0,0.547,0.246,0.547,0.547V212.59z"/>
				<path style="fill:#E7E7E7;" d="M160.552,203.435c0,0.301-0.246,0.547-0.547,0.547h-6.63c-0.301,0-0.547-0.246-0.547-0.547v-6.63
					c0-0.301,0.246-0.547,0.547-0.547h6.63c0.301,0,0.547,0.246,0.547,0.547V203.435z"/>
				<path style="fill:#E7E7E7;" d="M169.935,203.435c0,0.301-0.246,0.547-0.547,0.547h-6.63c-0.301,0-0.547-0.246-0.547-0.547v-6.63
					c0-0.301,0.246-0.547,0.547-0.547h6.63c0.301,0,0.547,0.246,0.547,0.547V203.435z"/>
				<path style="fill:#E7E7E7;" d="M179.319,203.435c0,0.301-0.246,0.547-0.547,0.547h-6.63c-0.301,0-0.547-0.246-0.547-0.547v-6.63
					c0-0.301,0.246-0.547,0.547-0.547h6.63c0.301,0,0.547,0.246,0.547,0.547V203.435z"/>
				<path style="fill:#E7E7E7;" d="M188.702,203.435c0,0.301-0.246,0.547-0.547,0.547h-6.63c-0.301,0-0.547-0.246-0.547-0.547v-6.63
					c0-0.301,0.246-0.547,0.547-0.547h6.63c0.301,0,0.547,0.246,0.547,0.547V203.435z"/>
				<path style="fill:#E7E7E7;" d="M198.086,203.435c0,0.301-0.246,0.547-0.547,0.547h-6.63c-0.301,0-0.547-0.246-0.547-0.547v-6.63
					c0-0.301,0.246-0.547,0.547-0.547h6.63c0.301,0,0.547,0.246,0.547,0.547V203.435z"/>
				<path style="fill:#E7E7E7;" d="M207.469,203.435c0,0.301-0.246,0.547-0.547,0.547h-6.63c-0.301,0-0.547-0.246-0.547-0.547v-6.63
					c0-0.301,0.246-0.547,0.547-0.547h6.63c0.301,0,0.547,0.246,0.547,0.547V203.435z"/>
				<path style="fill:#E7E7E7;" d="M216.853,203.435c0,0.301-0.246,0.547-0.547,0.547h-6.63c-0.301,0-0.547-0.246-0.547-0.547v-6.63
					c0-0.301,0.246-0.547,0.547-0.547h6.63c0.301,0,0.547,0.246,0.547,0.547V203.435z"/>
				<path style="fill:#E7E7E7;" d="M226.236,203.435c0,0.301-0.246,0.547-0.547,0.547h-6.63c-0.301,0-0.547-0.246-0.547-0.547v-6.63
					c0-0.301,0.246-0.547,0.547-0.547h6.63c0.301,0,0.547,0.246,0.547,0.547V203.435z"/>
				<path style="fill:#E7E7E7;" d="M228.265,212.59c0,0.301-0.246,0.547-0.547,0.547h-6.63c-0.301,0-0.547-0.246-0.547-0.547v-6.63
					c0-0.301,0.246-0.547,0.547-0.547h6.63c0.301,0,0.547,0.246,0.547,0.547V212.59z"/>
				<path style="fill:#E7E7E7;" d="M237.662,212.59c0,0.301-0.246,0.547-0.547,0.547h-6.63c-0.301,0-0.547-0.246-0.547-0.547v-6.63
					c0-0.301,0.246-0.547,0.547-0.547h6.63c0.301,0,0.547,0.246,0.547,0.547V212.59z"/>
				<path style="fill:#E7E7E7;" d="M247.059,212.59c0,0.301-0.246,0.547-0.547,0.547h-6.63c-0.301,0-0.547-0.246-0.547-0.547v-6.63
					c0-0.301,0.246-0.547,0.547-0.547h6.63c0.301,0,0.547,0.246,0.547,0.547V212.59z"/>
				<path style="fill:#E7E7E7;" d="M256.455,212.59c0,0.301-0.246,0.547-0.547,0.547h-6.63c-0.301,0-0.547-0.246-0.547-0.547v-6.63
					c0-0.301,0.246-0.547,0.547-0.547h6.63c0.301,0,0.547,0.246,0.547,0.547V212.59z"/>
				<path style="fill:#E7E7E7;" d="M235.619,203.435c0,0.301-0.246,0.547-0.547,0.547h-6.63c-0.301,0-0.547-0.246-0.547-0.547v-6.63
					c0-0.301,0.246-0.547,0.547-0.547h6.63c0.301,0,0.547,0.246,0.547,0.547V203.435z"/>
				<path style="fill:#E7E7E7;" d="M256.455,203.435c0,0.301-0.246,0.547-0.547,0.547h-18.082c-0.301,0-0.547-0.246-0.547-0.547
					v-6.63c0-0.301,0.246-0.547,0.547-0.547h18.082c0.301,0,0.547,0.246,0.547,0.547V203.435z"/>
				<path style="fill:#E7E7E7;" d="M165.045,194.143c0,0.301-0.246,0.547-0.547,0.547h-6.63c-0.301,0-0.547-0.246-0.547-0.547v-6.63
					c0-0.301,0.246-0.547,0.547-0.547h6.63c0.301,0,0.547,0.246,0.547,0.547V194.143z"/>
				<path style="fill:#E7E7E7;" d="M174.366,194.143c0,0.301-0.246,0.547-0.547,0.547h-6.63c-0.301,0-0.547-0.246-0.547-0.547v-6.63
					c0-0.301,0.246-0.547,0.547-0.547h6.63c0.301,0,0.547,0.246,0.547,0.547V194.143z"/>
				<path style="fill:#E7E7E7;" d="M183.688,194.143c0,0.301-0.246,0.547-0.547,0.547h-6.63c-0.301,0-0.547-0.246-0.547-0.547v-6.63
					c0-0.301,0.246-0.547,0.547-0.547h6.63c0.301,0,0.547,0.246,0.547,0.547V194.143z"/>
				<path style="fill:#E7E7E7;" d="M193.009,194.143c0,0.301-0.246,0.547-0.547,0.547h-6.63c-0.301,0-0.547-0.246-0.547-0.547v-6.63
					c0-0.301,0.246-0.547,0.547-0.547h6.63c0.301,0,0.547,0.246,0.547,0.547V194.143z"/>
				<path style="fill:#E7E7E7;" d="M202.33,194.143c0,0.301-0.246,0.547-0.547,0.547h-6.63c-0.301,0-0.547-0.246-0.547-0.547v-6.63
					c0-0.301,0.246-0.547,0.547-0.547h6.63c0.301,0,0.547,0.246,0.547,0.547V194.143z"/>
				<path style="fill:#E7E7E7;" d="M211.652,194.143c0,0.301-0.246,0.547-0.547,0.547h-6.63c-0.301,0-0.547-0.246-0.547-0.547v-6.63
					c0-0.301,0.246-0.547,0.547-0.547h6.63c0.301,0,0.547,0.246,0.547,0.547V194.143z"/>
				<path style="fill:#E7E7E7;" d="M220.973,194.143c0,0.301-0.246,0.547-0.547,0.547h-6.63c-0.301,0-0.547-0.246-0.547-0.547v-6.63
					c0-0.301,0.246-0.547,0.547-0.547h6.63c0.301,0,0.547,0.246,0.547,0.547V194.143z"/>
				<path style="fill:#E7E7E7;" d="M230.295,194.143c0,0.301-0.246,0.547-0.547,0.547h-6.63c-0.301,0-0.547-0.246-0.547-0.547v-6.63
					c0-0.301,0.246-0.547,0.547-0.547h6.63c0.301,0,0.547,0.246,0.547,0.547V194.143z"/>
				<path style="fill:#E7E7E7;" d="M239.616,194.143c0,0.301-0.246,0.547-0.547,0.547h-6.63c-0.301,0-0.547-0.246-0.547-0.547v-6.63
					c0-0.301,0.246-0.547,0.547-0.547h6.63c0.301,0,0.547,0.246,0.547,0.547V194.143z"/>
				<path style="fill:#E7E7E7;" d="M153.413,184.85c0,0.301-0.246,0.547-0.547,0.547h-6.63c-0.301,0-0.547-0.246-0.547-0.547v-6.63
					c0-0.301,0.246-0.547,0.547-0.547h6.63c0.301,0,0.547,0.246,0.547,0.547V184.85z"/>
				<path style="fill:#E7E7E7;" d="M162.646,184.85c0,0.301-0.246,0.547-0.547,0.547h-6.63c-0.301,0-0.547-0.246-0.547-0.547v-6.63
					c0-0.301,0.246-0.547,0.547-0.547h6.63c0.301,0,0.547,0.246,0.547,0.547V184.85z"/>
				<path style="fill:#E7E7E7;" d="M171.879,184.85c0,0.301-0.246,0.547-0.547,0.547h-6.63c-0.301,0-0.547-0.246-0.547-0.547v-6.63
					c0-0.301,0.246-0.547,0.547-0.547h6.63c0.301,0,0.547,0.246,0.547,0.547V184.85z"/>
				<path style="fill:#E7E7E7;" d="M181.112,184.85c0,0.301-0.246,0.547-0.547,0.547h-6.63c-0.301,0-0.547-0.246-0.547-0.547v-6.63
					c0-0.301,0.246-0.547,0.547-0.547h6.63c0.301,0,0.547,0.246,0.547,0.547V184.85z"/>
				<path style="fill:#E7E7E7;" d="M190.344,184.85c0,0.301-0.246,0.547-0.547,0.547h-6.63c-0.301,0-0.547-0.246-0.547-0.547v-6.63
					c0-0.301,0.246-0.547,0.547-0.547h6.63c0.301,0,0.547,0.246,0.547,0.547V184.85z"/>
				<path style="fill:#E7E7E7;" d="M199.577,184.85c0,0.301-0.246,0.547-0.547,0.547h-6.63c-0.301,0-0.547-0.246-0.547-0.547v-6.63
					c0-0.301,0.246-0.547,0.547-0.547h6.63c0.301,0,0.547,0.246,0.547,0.547V184.85z"/>
				<path style="fill:#E7E7E7;" d="M208.81,184.85c0,0.301-0.246,0.547-0.547,0.547h-6.63c-0.301,0-0.547-0.246-0.547-0.547v-6.63
					c0-0.301,0.246-0.547,0.547-0.547h6.63c0.301,0,0.547,0.246,0.547,0.547V184.85z"/>
				<path style="fill:#E7E7E7;" d="M218.043,184.85c0,0.301-0.246,0.547-0.547,0.547h-6.63c-0.301,0-0.547-0.246-0.547-0.547v-6.63
					c0-0.301,0.246-0.547,0.547-0.547h6.63c0.301,0,0.547,0.246,0.547,0.547V184.85z"/>
				<path style="fill:#E7E7E7;" d="M227.276,184.85c0,0.301-0.246,0.547-0.547,0.547h-6.63c-0.301,0-0.547-0.246-0.547-0.547v-6.63
					c0-0.301,0.246-0.547,0.547-0.547h6.63c0.301,0,0.547,0.246,0.547,0.547V184.85z"/>
				<path style="fill:#E7E7E7;" d="M236.508,184.85c0,0.301-0.246,0.547-0.547,0.547h-6.63c-0.301,0-0.547-0.246-0.547-0.547v-6.63
					c0-0.301,0.246-0.547,0.547-0.547h6.63c0.301,0,0.547,0.246,0.547,0.547V184.85z"/>
				<path style="fill:#E7E7E7;" d="M245.741,184.85c0,0.301-0.246,0.547-0.547,0.547h-6.63c-0.301,0-0.547-0.246-0.547-0.547v-6.63
					c0-0.301,0.246-0.547,0.547-0.547h6.63c0.301,0,0.547,0.246,0.547,0.547V184.85z"/>
				<g>
					<g>
						<path style="fill:#E7E7E7;" d="M247.798,177.673c-0.301,0-0.547,0.246-0.547,0.547v6.63c0,0.301,0.246,0.547,0.547,0.547
							h2.131c0.301,0,0.547,0.246,0.547,0.547v8.199c0,0.301,0.246,0.547,0.547,0.547h4.887c0.301,0,0.547-0.246,0.547-0.547V178.22
							c0-0.301-0.246-0.547-0.547-0.547H247.798z"/>
					</g>
					<g>
						<path style="fill:#E7E7E7;" d="M247.798,186.966c-0.301,0-0.793,0-1.093,0h-4.943c-0.301,0-0.547,0.246-0.547,0.547v6.63
							c0,0.301,0.246,0.547,0.547,0.547h4.943c0.301,0,0.793,0,1.093,0h0.593c0.301,0,0.547-0.246,0.547-0.547v-6.63
							c0-0.301-0.246-0.547-0.547-0.547H247.798z"/>
					</g>
				</g>
				<path style="fill:#E7E7E7;" d="M145.69,163.851c0,0.301-0.246,0.547-0.547,0.547h-6.63c-0.301,0-0.547-0.246-0.547-0.547v-6.63
					c0-0.301,0.246-0.547,0.547-0.547h6.63c0.301,0,0.547,0.246,0.547,0.547V163.851z"/>
				<path style="fill:#E7E7E7;" d="M155.723,163.851c0,0.301-0.246,0.547-0.547,0.547h-6.63c-0.301,0-0.547-0.246-0.547-0.547v-6.63
					c0-0.301,0.246-0.547,0.547-0.547h6.63c0.301,0,0.547,0.246,0.547,0.547V163.851z"/>
				<path style="fill:#E7E7E7;" d="M165.757,163.851c0,0.301-0.246,0.547-0.547,0.547h-6.63c-0.301,0-0.547-0.246-0.547-0.547v-6.63
					c0-0.301,0.246-0.547,0.547-0.547h6.63c0.301,0,0.547,0.246,0.547,0.547V163.851z"/>
				<path style="fill:#E7E7E7;" d="M175.791,163.851c0,0.301-0.246,0.547-0.547,0.547h-6.63c-0.301,0-0.547-0.246-0.547-0.547v-6.63
					c0-0.301,0.246-0.547,0.547-0.547h6.63c0.301,0,0.547,0.246,0.547,0.547V163.851z"/>
				<path style="fill:#E7E7E7;" d="M186.022,163.851c0,0.301-0.246,0.547-0.547,0.547h-6.63c-0.301,0-0.547-0.246-0.547-0.547v-6.63
					c0-0.301,0.246-0.547,0.547-0.547h6.63c0.301,0,0.547,0.246,0.547,0.547V163.851z"/>
				<path style="fill:#E7E7E7;" d="M196.056,163.851c0,0.301-0.246,0.547-0.547,0.547h-6.63c-0.301,0-0.547-0.246-0.547-0.547v-6.63
					c0-0.301,0.246-0.547,0.547-0.547h6.63c0.301,0,0.547,0.246,0.547,0.547V163.851z"/>
				<path style="fill:#E7E7E7;" d="M206.089,163.851c0,0.301-0.246,0.547-0.547,0.547h-6.63c-0.301,0-0.547-0.246-0.547-0.547v-6.63
					c0-0.301,0.246-0.547,0.547-0.547h6.63c0.301,0,0.547,0.246,0.547,0.547V163.851z"/>
				<path style="fill:#E7E7E7;" d="M216.123,163.851c0,0.301-0.246,0.547-0.547,0.547h-6.63c-0.301,0-0.547-0.246-0.547-0.547v-6.63
					c0-0.301,0.246-0.547,0.547-0.547h6.63c0.301,0,0.547,0.246,0.547,0.547V163.851z"/>
				<path style="fill:#E7E7E7;" d="M226.355,163.851c0,0.301-0.246,0.547-0.547,0.547h-6.63c-0.301,0-0.547-0.246-0.547-0.547v-6.63
					c0-0.301,0.246-0.547,0.547-0.547h6.63c0.301,0,0.547,0.246,0.547,0.547V163.851z"/>
				<path style="fill:#E7E7E7;" d="M236.388,163.851c0,0.301-0.246,0.547-0.547,0.547h-6.63c-0.301,0-0.547-0.246-0.547-0.547v-6.63
					c0-0.301,0.246-0.547,0.547-0.547h6.63c0.301,0,0.547,0.246,0.547,0.547V163.851z"/>
				<path style="fill:#E7E7E7;" d="M246.422,163.851c0,0.301-0.246,0.547-0.547,0.547h-6.63c-0.301,0-0.547-0.246-0.547-0.547v-6.63
					c0-0.301,0.246-0.547,0.547-0.547h6.63c0.301,0,0.547,0.246,0.547,0.547V163.851z"/>
				<path style="fill:#E7E7E7;" d="M256.455,163.851c0,0.301-0.246,0.547-0.547,0.547h-6.63c-0.301,0-0.547-0.246-0.547-0.547v-6.63
					c0-0.301,0.246-0.547,0.547-0.547h6.63c0.301,0,0.547,0.246,0.547,0.547V163.851z"/>
				<path style="fill:#E7E7E7;" d="M268.754,163.851c0,0.301-0.246,0.547-0.547,0.547h-6.63c-0.301,0-0.547-0.246-0.547-0.547v-6.63
					c0-0.301,0.246-0.547,0.547-0.547h6.63c0.301,0,0.547,0.246,0.547,0.547V163.851z"/>
				<path style="fill:#E7E7E7;" d="M278.456,163.851c0,0.301-0.246,0.547-0.547,0.547h-6.63c-0.301,0-0.547-0.246-0.547-0.547v-6.63
					c0-0.301,0.246-0.547,0.547-0.547h6.63c0.301,0,0.547,0.246,0.547,0.547V163.851z"/>
				<path style="fill:#E7E7E7;" d="M288.159,163.851c0,0.301-0.246,0.547-0.547,0.547h-6.63c-0.301,0-0.547-0.246-0.547-0.547v-6.63
					c0-0.301,0.246-0.547,0.547-0.547h6.63c0.301,0,0.547,0.246,0.547,0.547V163.851z"/>
				<path style="fill:#E7E7E7;" d="M268.754,175.512c0,0.301-0.246,0.547-0.547,0.547h-6.63c-0.301,0-0.547-0.246-0.547-0.547v-6.63
					c0-0.301,0.246-0.547,0.547-0.547h6.63c0.301,0,0.547,0.246,0.547,0.547V175.512z"/>
				<path style="fill:#E7E7E7;" d="M278.456,175.512c0,0.301-0.246,0.547-0.547,0.547h-6.63c-0.301,0-0.547-0.246-0.547-0.547v-6.63
					c0-0.301,0.246-0.547,0.547-0.547h6.63c0.301,0,0.547,0.246,0.547,0.547V175.512z"/>
				<path style="fill:#E7E7E7;" d="M288.159,175.512c0,0.301-0.246,0.547-0.547,0.547h-6.63c-0.301,0-0.547-0.246-0.547-0.547v-6.63
					c0-0.301,0.246-0.547,0.547-0.547h6.63c0.301,0,0.547,0.246,0.547,0.547V175.512z"/>
				<path style="fill:#E7E7E7;" d="M298.748,175.512c0,0.301-0.246,0.547-0.547,0.547h-6.63c-0.301,0-0.547-0.246-0.547-0.547v-6.63
					c0-0.301,0.246-0.547,0.547-0.547h6.63c0.301,0,0.547,0.246,0.547,0.547V175.512z"/>
				<path style="fill:#E7E7E7;" d="M307.972,175.512c0,0.301-0.246,0.547-0.547,0.547h-6.63c-0.301,0-0.547-0.246-0.547-0.547v-6.63
					c0-0.301,0.246-0.547,0.547-0.547h6.63c0.301,0,0.547,0.246,0.547,0.547V175.512z"/>
				<path style="fill:#E7E7E7;" d="M317.196,175.512c0,0.301-0.246,0.547-0.547,0.547h-6.63c-0.301,0-0.547-0.246-0.547-0.547v-6.63
					c0-0.301,0.246-0.547,0.547-0.547h6.63c0.301,0,0.547,0.246,0.547,0.547V175.512z"/>
				<path style="fill:#E7E7E7;" d="M326.42,175.512c0,0.301-0.246,0.547-0.547,0.547h-6.63c-0.301,0-0.547-0.246-0.547-0.547v-6.63
					c0-0.301,0.246-0.547,0.547-0.547h6.63c0.301,0,0.547,0.246,0.547,0.547V175.512z"/>
				<path style="fill:#E7E7E7;" d="M298.748,163.851c0,0.301-0.246,0.547-0.547,0.547h-6.63c-0.301,0-0.547-0.246-0.547-0.547v-6.63
					c0-0.301,0.246-0.547,0.547-0.547h6.63c0.301,0,0.547,0.246,0.547,0.547V163.851z"/>
				<path style="fill:#E7E7E7;" d="M307.972,163.851c0,0.301-0.246,0.547-0.547,0.547h-6.63c-0.301,0-0.547-0.246-0.547-0.547v-6.63
					c0-0.301,0.246-0.547,0.547-0.547h6.63c0.301,0,0.547,0.246,0.547,0.547V163.851z"/>
				<path style="fill:#E7E7E7;" d="M317.196,163.851c0,0.301-0.246,0.547-0.547,0.547h-6.63c-0.301,0-0.547-0.246-0.547-0.547v-6.63
					c0-0.301,0.246-0.547,0.547-0.547h6.63c0.301,0,0.547,0.246,0.547,0.547V163.851z"/>
				<path style="fill:#E7E7E7;" d="M326.42,163.851c0,0.301-0.246,0.547-0.547,0.547h-6.63c-0.301,0-0.547-0.246-0.547-0.547v-6.63
					c0-0.301,0.246-0.547,0.547-0.547h6.63c0.301,0,0.547,0.246,0.547,0.547V163.851z"/>
				<path style="fill:#E7E7E7;" d="M298.748,184.85c0,0.301-0.246,0.547-0.547,0.547h-6.63c-0.301,0-0.547-0.246-0.547-0.547v-6.63
					c0-0.301,0.246-0.547,0.547-0.547h6.63c0.301,0,0.547,0.246,0.547,0.547V184.85z"/>
				<path style="fill:#E7E7E7;" d="M307.972,184.85c0,0.301-0.246,0.547-0.547,0.547h-6.63c-0.301,0-0.547-0.246-0.547-0.547v-6.63
					c0-0.301,0.246-0.547,0.547-0.547h6.63c0.301,0,0.547,0.246,0.547,0.547V184.85z"/>
				<path style="fill:#E7E7E7;" d="M317.196,184.85c0,0.301-0.246,0.547-0.547,0.547h-6.63c-0.301,0-0.547-0.246-0.547-0.547v-6.63
					c0-0.301,0.246-0.547,0.547-0.547h6.63c0.301,0,0.547,0.246,0.547,0.547V184.85z"/>
				<path style="fill:#E7E7E7;" d="M326.42,184.85c0,0.301-0.246,0.547-0.547,0.547h-6.63c-0.301,0-0.547-0.246-0.547-0.547v-6.63
					c0-0.301,0.246-0.547,0.547-0.547h6.63c0.301,0,0.547,0.246,0.547,0.547V184.85z"/>
				<path style="fill:#E7E7E7;" d="M298.748,194.188c0,0.301-0.246,0.547-0.547,0.547h-6.63c-0.301,0-0.547-0.246-0.547-0.547v-6.63
					c0-0.301,0.246-0.547,0.547-0.547h6.63c0.301,0,0.547,0.246,0.547,0.547V194.188z"/>
				<path style="fill:#E7E7E7;" d="M307.972,194.188c0,0.301-0.246,0.547-0.547,0.547h-6.63c-0.301,0-0.547-0.246-0.547-0.547v-6.63
					c0-0.301,0.246-0.547,0.547-0.547h6.63c0.301,0,0.547,0.246,0.547,0.547V194.188z"/>
				<path style="fill:#E7E7E7;" d="M317.196,194.188c0,0.301-0.246,0.547-0.547,0.547h-6.63c-0.301,0-0.547-0.246-0.547-0.547v-6.63
					c0-0.301,0.246-0.547,0.547-0.547h6.63c0.301,0,0.547,0.246,0.547,0.547V194.188z"/>
				<path style="fill:#E7E7E7;" d="M326.42,194.188c0,0.301-0.246,0.547-0.547,0.547h-6.63c-0.301,0-0.547-0.246-0.547-0.547v-6.63
					c0-0.301,0.246-0.547,0.547-0.547h6.63c0.301,0,0.547,0.246,0.547,0.547V194.188z"/>
				<path style="fill:#E7E7E7;" d="M298.748,203.526c0,0.301-0.246,0.547-0.547,0.547h-6.63c-0.301,0-0.547-0.246-0.547-0.547v-6.63
					c0-0.301,0.246-0.547,0.547-0.547h6.63c0.301,0,0.547,0.246,0.547,0.547V203.526z"/>
				<path style="fill:#E7E7E7;" d="M307.972,203.526c0,0.301-0.246,0.547-0.547,0.547h-6.63c-0.301,0-0.547-0.246-0.547-0.547v-6.63
					c0-0.301,0.246-0.547,0.547-0.547h6.63c0.301,0,0.547,0.246,0.547,0.547V203.526z"/>
				<path style="fill:#E7E7E7;" d="M317.196,203.526c0,0.301-0.246,0.547-0.547,0.547h-6.63c-0.301,0-0.547-0.246-0.547-0.547v-6.63
					c0-0.301,0.246-0.547,0.547-0.547h6.63c0.301,0,0.547,0.246,0.547,0.547V203.526z"/>
				<path style="fill:#E7E7E7;" d="M326.42,212.59c0,0.301-0.246,0.547-0.547,0.547h-6.63c-0.301,0-0.547-0.246-0.547-0.547v-15.695
					c0-0.301,0.246-0.547,0.547-0.547h6.63c0.301,0,0.547,0.246,0.547,0.547V212.59z"/>
				<path style="fill:#E7E7E7;" d="M307.972,212.864c0,0.301-0.246,0.547-0.547,0.547h-15.854c-0.301,0-0.547-0.246-0.547-0.547
					v-6.63c0-0.301,0.246-0.547,0.547-0.547h15.854c0.301,0,0.547,0.246,0.547,0.547V212.864z"/>
				<path style="fill:#E7E7E7;" d="M317.196,212.864c0,0.301-0.246,0.547-0.547,0.547h-6.63c-0.301,0-0.547-0.246-0.547-0.547v-6.63
					c0-0.301,0.246-0.547,0.547-0.547h6.63c0.301,0,0.547,0.246,0.547,0.547V212.864z"/>
				<path style="fill:#E7E7E7;" d="M268.754,184.85c0,0.301-0.246,0.547-0.547,0.547h-6.63c-0.301,0-0.547-0.246-0.547-0.547v-6.63
					c0-0.301,0.246-0.547,0.547-0.547h6.63c0.301,0,0.547,0.246,0.547,0.547V184.85z"/>
				<path style="fill:#E7E7E7;" d="M278.456,184.85c0,0.301-0.246,0.547-0.547,0.547h-6.63c-0.301,0-0.547-0.246-0.547-0.547v-6.63
					c0-0.301,0.246-0.547,0.547-0.547h6.63c0.301,0,0.547,0.246,0.547,0.547V184.85z"/>
				<path style="fill:#E7E7E7;" d="M288.159,184.85c0,0.301-0.246,0.547-0.547,0.547h-6.63c-0.301,0-0.547-0.246-0.547-0.547v-6.63
					c0-0.301,0.246-0.547,0.547-0.547h6.63c0.301,0,0.547,0.246,0.547,0.547V184.85z"/>
				<path style="fill:#E7E7E7;" d="M268.754,194.143c0,0.301-0.246,0.547-0.547,0.547h-6.63c-0.301,0-0.547-0.246-0.547-0.547v-6.63
					c0-0.301,0.246-0.547,0.547-0.547h6.63c0.301,0,0.547,0.246,0.547,0.547V194.143z"/>
				<path style="fill:#E7E7E7;" d="M278.456,194.143c0,0.301-0.246,0.547-0.547,0.547h-6.63c-0.301,0-0.547-0.246-0.547-0.547v-6.63
					c0-0.301,0.246-0.547,0.547-0.547h6.63c0.301,0,0.547,0.246,0.547,0.547V194.143z"/>
				<path style="fill:#E7E7E7;" d="M288.159,194.143c0,0.301-0.246,0.547-0.547,0.547h-6.63c-0.301,0-0.547-0.246-0.547-0.547v-6.63
					c0-0.301,0.246-0.547,0.547-0.547h6.63c0.301,0,0.547,0.246,0.547,0.547V194.143z"/>
				<path style="fill:#E7E7E7;" d="M278.456,203.253c0,0.301-0.246,0.547-0.547,0.547h-6.63c-0.301,0-0.547-0.246-0.547-0.547v-6.63
					c0-0.301,0.246-0.547,0.547-0.547h6.63c0.301,0,0.547,0.246,0.547,0.547V203.253z"/>
				<path style="fill:#E7E7E7;" d="M268.754,212.59c0,0.301-0.246,0.547-0.547,0.547h-6.63c-0.301,0-0.547-0.246-0.547-0.547v-6.63
					c0-0.301,0.246-0.547,0.547-0.547h6.63c0.301,0,0.547,0.246,0.547,0.547V212.59z"/>
				<path style="fill:#E7E7E7;" d="M278.456,212.59c0,0.301-0.246,0.547-0.547,0.547h-6.63c-0.301,0-0.547-0.246-0.547-0.547v-6.63
					c0-0.301,0.246-0.547,0.547-0.547h6.63c0.301,0,0.547,0.246,0.547,0.547V212.59z"/>
				<path style="fill:#E7E7E7;" d="M288.159,212.59c0,0.301-0.246,0.547-0.547,0.547h-6.63c-0.301,0-0.547-0.246-0.547-0.547v-6.63
					c0-0.301,0.246-0.547,0.547-0.547h6.63c0.301,0,0.547,0.246,0.547,0.547V212.59z"/>
			</g>
			<path style="fill:#D6D5D2;" d="M247.026,258.04h-44.053c-2.002,0-3.624-1.622-3.624-3.624v-27.481
				c0-2.001,1.622-3.624,3.624-3.624h44.053c2.001,0,3.624,1.622,3.624,3.624v27.481C250.65,256.418,249.028,258.04,247.026,258.04z
				"/>
			<path style="fill:#5A5A5A;" d="M154.029,123.118c-0.45,4.675,1.032,10.056,4.451,10.056h133.039
				c3.419,0,4.901-5.381,4.451-10.056H154.029z"/>
			<path style="fill:#B3B3B3;" d="M289.954,132.415H160.045c-5.902,0-5.902-7.952,0-7.952h129.909
				C295.856,124.463,295.856,132.415,289.954,132.415z"/>
		</g>
		<g>
			<g>
				<path style="fill:#E5E5E5;" d="M350.378,24.578H99.622c-0.611,0-1.294,0.275-1.873,0.755l-5.098,4.917
					c0,0-1.463,3.141,0.908,3.141h262.881c3.054,0,0.846-3.207,0.846-3.207l-5.036-4.851
					C351.672,24.853,350.988,24.578,350.378,24.578z"/>
				<polygon style="fill:#BDBDBD;" points="109.084,33.502 102.491,33.502 105.639,24.578 112.062,24.578 				"/>
				<polygon style="fill:#BDBDBD;" points="115.333,33.502 112.563,33.502 115.452,24.578 118.15,24.578 				"/>
				<polygon style="fill:#BDBDBD;" points="336.887,33.502 330.295,33.502 327.59,24.578 334.013,24.578 				"/>
				<polygon style="fill:#BDBDBD;" points="343.137,33.502 340.367,33.502 337.403,24.578 340.101,24.578 				"/>
				<polygon style="fill:#BDBDBD;" points="328.166,33.502 326.781,33.502 324.166,24.578 325.516,24.578 				"/>
			</g>
			<path style="fill:#010101;" d="M331.633,125.868H118.367c-2.478,0-5.138-2.686-5.952-6.043l-20.18-83.164
				c-1.151-4.743,0.339-8.648,3.346-8.648h258.838c3.007,0,4.497,3.906,3.346,8.648l-20.18,83.164
				C336.77,123.182,334.11,125.868,331.633,125.868z"/>
			<polygon style="fill:#97DAD8;" points="331.669,115.635 118.331,115.635 98.096,35.901 351.904,35.901 			"/>
			<polygon style="fill:#C1E9E8;" points="331.669,115.635 281.155,115.635 242.946,35.901 351.904,35.901 			"/>
			<polygon style="fill:#C1E9E8;" points="192.418,115.635 171.48,115.635 145.378,35.901 164.203,35.901 			"/>
			<polygon style="fill:#C1E9E8;" points="214.477,115.635 204.12,115.635 174.415,35.901 183.828,35.901 			"/>
		</g>
	</g>
</g>
<g>
	<path style="opacity:0.65;fill:#C1DAE3;" d="M53.401,118.008c15.489,0,28.045-12.556,28.045-28.046
		c0-15.49-12.556-28.047-28.045-28.047c-15.49,0-28.047,12.556-28.047,28.047C25.355,105.452,37.911,118.008,53.401,118.008z"/>
	<g>
		<g>
			<path style="fill:#F4F6F5;" d="M76.812,84.942c0,15.489-12.556,28.046-28.045,28.046c-15.49,0-28.047-12.556-28.047-28.046
				c0-15.49,12.556-28.047,28.047-28.047C64.255,56.896,76.812,69.452,76.812,84.942z"/>
		</g>
		<g>
			<path style="opacity:0.35;fill:#999999;" d="M71.125,90.981l-3.756-2.383c-0.48-0.317-0.91,0.25-1.443,0.162
				c0.909-2.334,1.425-4.865,1.425-7.522c0-11.435-9.235-20.705-20.626-20.705c-11.391,0-20.626,9.27-20.626,20.705
				c0,11.435,9.235,20.705,20.626,20.705c6.112,0,11.586-2.685,15.363-6.924c0.273,0.378,0.607,0.719,1.018,0.99l4.134,2.729
				c1.83,1.207,4.289,0.697,5.493-1.139C73.934,95.762,72.955,92.189,71.125,90.981z"/>
			<path style="opacity:0.5;fill:#999999;" d="M70.861,90.8l-4.037-2.655c-0.469-0.308-0.98-0.495-1.501-0.58
				c0.887-2.271,1.392-4.733,1.392-7.318c0-11.125-9.019-20.144-20.144-20.144c-11.125,0-20.144,9.019-20.144,20.144
				s9.019,20.144,20.144,20.144c5.969,0,11.315-2.612,15.003-6.737c0.267,0.368,0.593,0.699,0.994,0.963l4.037,2.655
				c1.787,1.175,4.188,0.679,5.364-1.108C73.144,94.377,72.648,91.975,70.861,90.8z"/>
			<g>
				<g>
					<path style="fill:#FFFFFF;" d="M70.599,90.566l-3.999-2.63c-0.465-0.305-0.971-0.49-1.487-0.575
						c0.879-2.249,1.379-4.689,1.379-7.249c0-11.02-8.934-19.954-19.954-19.954c-11.02,0-19.954,8.934-19.954,19.954
						s8.934,19.954,19.954,19.954c5.913,0,11.209-2.587,14.862-6.673c0.264,0.364,0.588,0.692,0.985,0.954l3.999,2.63
						c1.771,1.163,4.149,0.672,5.314-1.097C72.861,94.109,72.369,91.73,70.599,90.566z"/>
					<path style="fill:#9B8383;" d="M62.74,80.241c0,8.948-7.254,16.202-16.202,16.202c-8.949,0-16.203-7.254-16.203-16.202
						c0-8.949,7.254-16.203,16.203-16.203C55.485,64.038,62.74,71.292,62.74,80.241z"/>
				</g>
				<g>
					<path style="fill:#FFFFFF;" d="M42.749,90.197c-3.738-1.122-6.631-4.447-6.979-8.857c-0.407-5.147,2.745-9.577,7.359-10.915
						c3.096-0.898,13.791-1.082,13.335,11.654c0,0-1.872-11.686-12.545-9.338c-3.451,0.759-6.005,4.461-5.703,8.556
						c0.253,3.438,2.367,5.575,5.118,6.59c1.603,0.592,3.768,0.611,5.386-0.195c2.988-1.489,2.881-5.16,1.188-7.444
						c-1.485-2.004-5.639-2.729-6.303,0.208c-0.364,1.612,1.257,3.503,3.887,3.765c-1.829,0.82-5.231,1.194-6.406-2.136
						c-1.064-3.013,2.133-8.722,8.73-5.537c3.814,1.841,5.037,6.731,2.923,10.139C50.07,90.991,44.815,90.817,42.749,90.197z"/>
				</g>
			</g>
		</g>
	</g>
</g>
<g>
	<path style="opacity:0.65;fill:#C1DAE3;" d="M427.374,315.385h-65.129c-1.146,0-2.076,0.719-2.076,1.606v82.289
		c0,0.887,0.929,1.606,2.076,1.606h65.129c1.146,0,2.076-0.719,2.076-1.606v-82.289C429.449,316.104,428.52,315.385,427.374,315.385
		z"/>
	<g>
		<path style="fill:#010101;" d="M423.59,395.971h-65.129c-1.146,0-2.076-0.719-2.076-1.606v-82.289
			c0-0.887,0.929-1.606,2.076-1.606h65.129c1.146,0,2.076,0.719,2.076,1.606v82.289C425.666,395.252,424.736,395.971,423.59,395.971
			z"/>
		<rect x="361.534" y="317.077" style="fill:#E9E8E6;" width="58.982" height="67.917"/>
		<rect x="362.077" y="317.702" style="fill:#97DAD8;" width="57.896" height="66.666"/>
		<polygon style="fill:#C1E9E8;" points="419.974,384.368 405.512,384.368 394.943,317.702 419.974,317.702 		"/>
		<polygon style="fill:#C1E9E8;" points="402.214,384.368 398.689,384.368 387.814,317.702 391.801,317.702 		"/>
		<path style="fill:#7B91AB;" d="M394.809,313.882c0,0.344-0.279,0.623-0.623,0.623c-0.344,0-0.623-0.279-0.623-0.623
			s0.279-0.623,0.623-0.623C394.53,313.259,394.809,313.538,394.809,313.882z"/>
		<path style="fill:#7B91AB;" d="M392.079,313.882c0,0.344-0.352,0.623-0.785,0.623h-6.133c-0.434,0-0.785-0.279-0.785-0.623l0,0
			c0-0.344,0.352-0.623,0.785-0.623h6.133C391.727,313.259,392.079,313.538,392.079,313.882L392.079,313.882z"/>
		<circle style="fill:#E9E8E6;" cx="390.904" cy="389.451" r="2.344"/>
		<circle style="fill:#7B91AB;" cx="390.904" cy="389.451" r="1.838"/>
	</g>
</g>
<g>
	<path style="opacity:0.65;fill:#C1DAE3;" d="M406.301,62.49c-0.958-1.388-2.753-2.122-5.191-2.125
		c-1.844,0.001-3.147,0.24-4.105,0.76c-1.214,0.661-1.78,1.738-1.778,3.385l0.006,16.118c0.001,0.035,0.014,0.87,1.178,1.497
		c0.838,0.451,2.024,0.675,3.528,0.666l0.036,0c1.148-0.005,3.837-0.02,4.558-2.065l0.012-0.033l-0.004-13.448
		c-0.001-0.036-0.014-0.905-1.08-1.436c-0.605-0.301-1.4-0.431-2.364-0.386l-0.096,0.006c-0.941,0.044-3.436,0.157-3.558,1.804
		l0.003,11.615l1.327,0l-0.004-11.593c0.075-0.929,1.104-1.052,2.342-1.107l0.101-0.006c0.583-0.027,1.024,0.038,1.348,0.198
		c0.637,0.313,0.653,0.902,0.654,0.905l0.005,13.377c-0.53,1.431-2.104,1.439-3.256,1.446l-0.036,0
		c-3.239,0.018-3.363-1.293-3.365-1.44l-0.007-16.119c-0.001-1.424,0.455-2.364,1.392-2.873c0.69-0.375,1.694-0.55,3.163-0.549
		c1.854,0.001,3.181,0.553,3.939,1.64c0.611,0.873,0.621,1.768,0.621,1.778l0.006,12.579l1.326,0l-0.005-12.581
		C406.996,64.457,406.987,63.479,406.301,62.49z"/>
	<g>
		<path style="fill:#666699;" d="M403.831,61.035L403.831,61.035l0.005,12.581l-1.326,0l-0.006-12.579
			c0-0.01-0.01-0.905-0.621-1.778c-0.758-1.087-2.085-1.639-3.939-1.64c-1.469-0.001-2.472,0.173-3.162,0.549
			c-0.937,0.509-1.393,1.449-1.392,2.873l0.007,16.119c0.002,0.147,0.126,1.459,3.365,1.441l0.036,0
			c1.152-0.007,2.727-0.015,3.256-1.446l-0.005-13.377c-0.001-0.003-0.018-0.592-0.654-0.905c-0.323-0.161-0.765-0.225-1.348-0.198
			l-0.101,0.006c-1.237,0.055-2.267,0.178-2.342,1.107l0.004,11.593l-1.327,0l-0.003-11.615c0.122-1.647,2.617-1.761,3.558-1.805
			l0.096-0.006c0.964-0.044,1.759,0.086,2.364,0.386c1.066,0.531,1.078,1.4,1.08,1.436l0.004,13.448l-0.012,0.033
			c-0.721,2.045-3.41,2.061-4.558,2.065l-0.036,0c-1.504,0.009-2.691-0.216-3.528-0.667c-1.164-0.627-1.177-1.462-1.178-1.497
			l-0.006-16.118c-0.001-1.648,0.565-2.724,1.778-3.385c0.958-0.52,2.261-0.759,4.105-0.76c2.438,0.003,4.233,0.737,5.191,2.125
			C403.823,60.01,403.832,60.987,403.831,61.035z"/>
	</g>
</g>
<g>
	<path style="opacity:0.65;fill:#C1DAE3;" d="M427.536,83.74c-0.001-0.035-0.014-0.869-1.178-1.497
		c-0.838-0.451-2.024-0.675-3.528-0.666l-0.036,0c-1.148,0.005-3.837,0.02-4.558,2.065l-0.012,0.033l0.004,13.448
		c0.001,0.036,0.014,0.905,1.08,1.436c0.605,0.301,1.4,0.431,2.364,0.386l0.097-0.006c0.94-0.044,3.436-0.157,3.558-1.804
		l-0.003-11.615l-1.327,0L424,97.112c-0.075,0.929-1.104,1.052-2.342,1.107l-0.101,0.006c-0.583,0.027-1.024-0.038-1.348-0.198
		c-0.637-0.313-0.653-0.902-0.654-0.905l-0.005-13.377c0.53-1.431,2.104-1.439,3.256-1.446l0.036,0
		c3.239-0.018,3.363,1.293,3.365,1.44l0.007,16.119c0.001,1.424-0.455,2.364-1.392,2.873c-0.69,0.375-1.694,0.55-3.162,0.549
		c-1.854-0.001-3.181-0.553-3.939-1.64c-0.611-0.873-0.621-1.768-0.621-1.778l-0.006-12.579h-1.326l0.005,12.581
		c-0.001,0.048,0.008,1.025,0.694,2.015c0.958,1.388,2.753,2.122,5.191,2.125c1.844-0.001,3.147-0.24,4.105-0.76
		c1.214-0.661,1.78-1.738,1.778-3.385L427.536,83.74z"/>
	<g>
		<path style="fill:#666699;" d="M412.61,96.394L412.61,96.394l-0.005-12.581l1.326,0l0.006,12.579c0,0.01,0.01,0.905,0.621,1.778
			c0.758,1.087,2.085,1.639,3.939,1.64c1.469,0.001,2.472-0.173,3.162-0.549c0.937-0.509,1.393-1.449,1.392-2.873l-0.007-16.119
			c-0.002-0.147-0.126-1.459-3.365-1.44l-0.036,0c-1.152,0.006-2.727,0.015-3.256,1.446l0.005,13.377
			c0.001,0.003,0.018,0.592,0.654,0.905c0.324,0.161,0.765,0.225,1.348,0.198l0.101-0.006c1.238-0.055,2.267-0.178,2.342-1.107
			l-0.004-11.593l1.327,0l0.003,11.615c-0.122,1.647-2.617,1.761-3.558,1.804l-0.096,0.006c-0.964,0.044-1.759-0.085-2.364-0.386
			c-1.066-0.531-1.078-1.399-1.08-1.436l-0.004-13.448l0.012-0.033c0.72-2.045,3.41-2.06,4.558-2.065l0.036,0
			c1.504-0.009,2.691,0.215,3.528,0.666c1.164,0.627,1.177,1.462,1.178,1.497l0.006,16.118c0.001,1.647-0.565,2.724-1.778,3.385
			c-0.958,0.519-2.261,0.759-4.105,0.76c-2.438-0.003-4.233-0.737-5.191-2.125C412.618,97.419,412.609,96.441,412.61,96.394z"/>
	</g>
</g>
<g>
	<path style="opacity:0.65;fill:#C1DAE3;" d="M393.447,106.425v1.556h-1.178v-3.978h-6.134v23.368h0.547v27.677
		c0,0.277,0.217,0.501,0.486,0.501h4.068c0.268,0,0.486-0.225,0.486-0.501V127.37h0.547v-17.377h1.178v11.256h1.418v-14.824H393.447
		z"/>
	<g>
		<path style="fill:#F5F5F5;" d="M387.808,149.735c0,0.277-0.217,0.502-0.486,0.502h-4.068c-0.268,0-0.486-0.225-0.486-0.502
			v-32.293c0-0.277,0.217-0.502,0.486-0.502h4.068c0.268,0,0.486,0.225,0.486,0.502V149.735z"/>
		<polygon style="fill:#97DAD8;" points="389.533,101.112 389.533,102.668 388.355,102.668 388.355,98.69 382.221,98.69 
			382.221,122.058 388.355,122.058 388.355,104.681 389.533,104.681 389.533,115.937 390.951,115.937 390.951,101.112 		"/>
	</g>
</g>
<g>
	<path style="opacity:0.65;fill:#C1DAE3;" d="M378.092,107.98h-1.178v-3.978h-6.134v23.368h0.547v27.677
		c0,0.277,0.218,0.501,0.486,0.501h4.068c0.268,0,0.486-0.225,0.486-0.501V127.37h0.547v-17.377h1.178v11.256h1.418v-14.824h-1.418
		V107.98z"/>
	<g>
		<path style="fill:#F5F5F5;" d="M372.453,149.735c0,0.277-0.217,0.502-0.486,0.502H367.9c-0.268,0-0.486-0.225-0.486-0.502v-32.293
			c0-0.277,0.217-0.502,0.486-0.502h4.068c0.268,0,0.486,0.225,0.486,0.502V149.735z"/>
		<polygon style="fill:#FFCC66;" points="374.179,101.112 374.179,102.668 373,102.668 373,98.69 366.867,98.69 366.867,122.058 
			373,122.058 373,104.681 374.179,104.681 374.179,115.937 375.596,115.937 375.596,101.112 		"/>
	</g>
</g>
</svg>
